<?xml version="1.0" encoding="utf-8"?>
<!-- Generator: Adobe Illustrator 22.0.0, SVG Export Plug-In . SVG Version: 6.00 Build 0)  -->
<svg version="1.1" id="Layer_1" xmlns="http://www.w3.org/2000/svg" xmlns:xlink="http://www.w3.org/1999/xlink" x="0px" y="0px"
	 viewBox="0 0 293 399" style="enable-background:new 0 0 293 399;" xml:space="preserve">
<style type="text/css">
	.st0{fill:#FFFFFF;}
</style>
<path class="st0" d="M199.3,80.5c0.2,0.1,0.3,0.1,0.5,0.1c-0.1,0-0.3,0.1-0.3,0.1c-0.4,0.3-0.9,0.9-0.7,1.4c0.2,0.4,0.7,0.2,0.7,0.2
	s-0.2,0.2,0,0.5c0.2,0.3,0.9,0.3,1.5-0.4c0.1-0.1,0.2-0.3,0.3-0.5c0,0.2,0,0.4,0,0.6c0.1,0.5,0.6,1.1,1.1,1.1c0.5,0,0.5-0.6,0.5-0.6
	s0.2,0.3,0.5,0.2c0.4-0.1,0.5-0.8,0.1-1.5c-0.1-0.2-0.3-0.4-0.4-0.6c0.2,0.1,0.4,0.1,0.5,0.1c0.5,0,1.3-0.2,1.4-0.7
	c0.1-0.5-0.4-0.6-0.4-0.6s0.3-0.1,0.3-0.5c0-0.4-0.6-0.7-1.4-0.5c-0.2,0-0.4,0.1-0.6,0.2c0.1-0.2,0.3-0.3,0.3-0.5
	c0.2-0.5,0.2-1.3-0.2-1.5c-0.4-0.2-0.7,0.2-0.7,0.2s0-0.3-0.3-0.4c-0.4-0.1-0.9,0.3-1,1.2c0,0.2,0,0.4,0,0.6
	c-0.1-0.2-0.2-0.3-0.3-0.4c-0.4-0.3-1.2-0.6-1.5-0.3c-0.4,0.3,0,0.7,0,0.7s-0.3-0.1-0.5,0.2C198.2,79.5,198.5,80.1,199.3,80.5"/>
<path class="st0" d="M187.6,159c0,0-0.3,0.8,0.5,1.3c0.8,0.6,2.4-0.1,3.3-2.2c0.9-2.1,0.4-5.1,0.4-5.1c-0.1-0.6-0.5-0.8-0.9-0.7
	c-0.4,0.1-3.7,1.7-4.5,2.7c-0.8,1-1.4,3-0.6,3.9C186.4,159.9,187.6,159,187.6,159"/>
<path class="st0" d="M242.8,126.3c0.4-0.1,3.8-1.4,4.7-2.3c0.9-0.9,1.7-2.9,1-3.9c-0.7-1-1.9-0.2-1.9-0.2s0.4-0.7-0.4-1.4
	c-0.8-0.7-2.4-0.1-3.5,1.9c-1,2-0.9,5.1-0.9,5.1C241.9,126.1,242.3,126.4,242.8,126.3"/>
<path class="st0" d="M274.1,222.1c0,0,0.8-0.3,0.6-1.3c-0.2-1-1.8-1.7-3.9-0.8c-2.1,0.9-3.9,3.3-3.9,3.3c-0.4,0.5-0.2,1,0.2,1.2
	c0.4,0.2,3.8,1.4,5.1,1.3c1.3-0.1,3.1-1.1,3.2-2.3C275.5,222.3,274.1,222.1,274.1,222.1"/>
<path class="st0" d="M200.8,58c0.8,1,2.7,1.9,3.8,1.3c1-0.6,0.4-1.9,0.4-1.9s0.7,0.5,1.4-0.2c0.7-0.7,0.3-2.4-1.6-3.6
	c-1.9-1.2-5-1.3-5-1.3c-0.6,0-0.9,0.4-0.9,0.8C199,53.6,199.9,57,200.8,58"/>
<path class="st0" d="M195.2,258.2c0.7,0.7,2.3,0.4,3.5-1.5c1.2-1.8,1.3-4.8,1.3-4.8c0-0.6-0.3-0.9-0.8-0.8c-0.4,0-3.8,1-4.8,1.7
	c-1,0.8-1.9,2.6-1.3,3.6c0.6,1,1.8,0.4,1.8,0.4S194.5,257.5,195.2,258.2"/>
<path class="st0" d="M210.3,287.8C210.3,287.9,210.3,287.9,210.3,287.8C210.3,287.9,210.3,287.9,210.3,287.8c0,0,0.1,0,0.1-0.1
	L210.3,287.8z"/>
<path class="st0" d="M226.2,66.1c0.4,0,0.8,0,1.2-0.1c-0.3,0.2-0.5,0.4-0.6,0.5c-0.7,0.8-1.2,2.6-0.6,3.3c0.7,0.8,1.6,0,1.6,0
	s-0.3,0.7,0.4,1.1c0.7,0.5,2.1-0.1,2.8-1.8c0.2-0.4,0.3-0.8,0.3-1.3c0.1,0.5,0.3,1,0.4,1.2c0.5,0.9,2,2,3,1.6c1-0.4,0.6-1.5,0.6-1.5
	s0.5,0.5,1.2,0c0.7-0.5,0.6-2-0.8-3.3c-0.4-0.3-0.8-0.6-1.3-0.8c0.5,0,0.9,0,1.2-0.1c1.1-0.3,2.5-1.4,2.4-2.4c-0.1-1-1.3-1-1.3-1
	s0.6-0.4,0.3-1.2c-0.3-0.8-1.7-1.1-3.4-0.1c-0.4,0.2-0.8,0.6-1.1,0.9c0.2-0.5,0.3-0.9,0.3-1.2c0.1-1.1-0.5-2.8-1.5-3
	c-1-0.2-1.3,0.9-1.3,0.9s-0.2-0.7-1-0.7c-0.9,0-1.6,1.3-1.2,3.2c0.1,0.4,0.3,0.8,0.5,1.2c-0.4-0.3-0.7-0.5-1-0.6
	c-1-0.4-2.8-0.3-3.3,0.5s0.5,1.5,0.5,1.5s-0.7-0.1-1,0.7C223.4,64.8,224.3,66,226.2,66.1"/>
<path class="st0" d="M213.9,73.2c0.2,0.1,0.5,0.2,0.7,0.2c-0.2,0.1-0.3,0.1-0.5,0.2c-0.6,0.3-1.2,1.3-1,1.9c0.2,0.6,0.9,0.3,0.9,0.3
	s-0.3,0.3,0,0.8c0.3,0.4,1.2,0.4,2-0.5c0.2-0.2,0.3-0.4,0.5-0.7c0,0.3,0,0.6,0,0.8c0.1,0.7,0.8,1.6,1.4,1.5c0.6,0,0.6-0.8,0.6-0.8
	s0.2,0.4,0.7,0.2c0.5-0.2,0.8-1.1,0.2-2.1c-0.2-0.3-0.4-0.5-0.6-0.8c0.3,0.1,0.5,0.2,0.7,0.2c0.7,0.1,1.7-0.3,1.9-0.9
	c0.2-0.6-0.6-0.8-0.6-0.8s0.4-0.1,0.4-0.6c0-0.5-0.8-1-2-0.7c-0.3,0.1-0.6,0.2-0.8,0.3c0.2-0.2,0.4-0.5,0.4-0.6
	c0.3-0.6,0.2-1.8-0.3-2.1c-0.5-0.3-1,0.3-1,0.3s0-0.4-0.5-0.6c-0.5-0.2-1.2,0.4-1.3,1.6c0,0.3,0,0.6,0,0.8c-0.2-0.2-0.3-0.4-0.5-0.6
	c-0.5-0.4-1.6-0.8-2.1-0.3c-0.5,0.4,0,1,0,1s-0.4-0.2-0.7,0.2C212.5,71.9,212.8,72.8,213.9,73.2"/>
<path class="st0" d="M292.2,177.3c0-0.1-0.1-0.2-0.1-0.2c0.2-0.3,0.4-0.8,0.4-1.3c0-1-0.5-1.8-1.2-1.8c-0.3,0-0.6,0.2-0.8,0.5
	c-0.2-1-0.6-1.7-1.2-1.5c-0.3,0.1-0.6,0.4-0.7,0.9c-0.2-0.1-0.3-0.1-0.5-0.1c-0.1,0-0.2,0.1-0.2,0.1c-0.1-0.1-0.1-0.2-0.2-0.3
	l-0.3-0.5l-0.2-0.3c-0.5-0.7-1-1.5-1.4-2.4c0.1,0.1,0.3,0.1,0.4,0.1c0.3,0,0.8-0.1,1.1-0.7c0.3-0.6-0.7-0.6-0.7-0.6
	c0.5-0.6-1.1-1.2-1.1-1.2c0.5-0.5,0.6-1,0.6-1s-0.8-0.3-1.2,0.3c0,0,0,0.1-0.1,0.2c-0.1-0.3-0.2-0.7-0.2-1c-0.2-1.1-0.2-2.3-0.2-3.5
	c0-0.6,0.1-1.2,0.2-1.7c0,0,0-0.1,0-0.1c0.6,0,0.9-0.1,0.7-0.1c-0.2,0-0.3-0.6-0.4-0.7c1,0.1,1.9-0.1,1.6-0.1
	c-0.3,0-0.4-0.8-0.4-0.8l0.3-0.5c0,0,0.4-1.1-0.4-1.1c-0.8,0-0.8-0.5-0.8-0.5c0.6-0.4,0.8-0.9,0.7-1.3c-0.1-0.4-0.5-0.3-0.5-0.3
	s-0.5,0.2-1.3,0.1c-0.6,0-1,0.5-1.2,0.8c0,0,0,0,0,0c-0.1,0-0.2,0-0.3,0c-0.2-0.1-0.4-0.1-0.6-0.1c-0.5,0-0.9,0.2-1.2,0.5
	c-0.2-1-0.9-1.7-1.8-1.5c-0.5,0.1-0.8,0.4-1,0.8c-0.1,0-0.1,0-0.2,0c-0.9,0.2-1.5,1.2-1.2,2.2c0,0.1,0,0.1,0,0.2
	c-0.1,0-0.2,0.1-0.3,0.2c-0.1,0.1-0.2,0.3-0.2,0.5c-0.4,0-0.8,0.1-1,0.3c-0.3,0.3-0.3,0.9-0.3,1.4c0,0.5,0.1,1.1,0.4,1.4
	c0.3,0.3,0.7,0.2,1.1,0.2c0.1,0.9,1,1.6,2.1,1.6c0.6,0,1.2-0.2,1.5-0.6c0.3,0.1,0.6,0.2,0.9,0.2c0.2,0,0.3,0,0.5-0.1
	c-0.1,0.7-0.1,1.4-0.1,2.1c-0.1,0-0.1,0-0.2,0c-0.2,0-0.5,0.1-0.6,0.2c-0.1-0.5-0.4-0.8-0.9-0.7c-0.5,0.1-0.7,0.5-0.6,1c0,0,0,0,0,0
	c-0.2-0.1-0.4-0.2-0.6-0.2c-0.5,0.1-0.7,0.5-0.6,1c0,0.1,0.1,0.3,0.1,0.4c0,0-0.1,0-0.1,0c-0.2,0-0.5,0-0.7,0.1
	c-0.2,0.1-0.2,0.4-0.2,0.6c0,0.2,0.1,0.5,0.2,0.6c0.1,0.1,0.4,0.1,0.6,0.1c0.1,0.4,0.5,0.7,1,0.7c0.3,0,0.6-0.1,0.8-0.3
	c0.1,0.1,0.3,0.1,0.4,0.1c0.5,0,1-0.4,1-0.8c0.1,0,0.1,0,0.2,0c0.2,0,0.3,0,0.5-0.1c0.3,1.9,1,3.7,1.8,5.4c-0.1-0.1-0.2-0.1-0.4-0.1
	c-0.7,0-2.2,0.4-2.5,1c-0.8,0.3-1.6,0.7-1.2,1.4c0.1,0.1,0.2,0.3,0.2,0.4c-0.3,0-0.5,0.2-0.6,0.8c0,0,0,0,0,0.1
	c-0.4,0-1.1-0.4-1.2,0.7c-0.1,1.2,0.5,1.7,1.1,1.7c0.6-0.1,0.9-0.3,0.9-0.3s-1.3,1.3-0.5,1.7c0.1,0.1,0.3,0.1,0.4,0.2c0,0,0,0-0.1,0
	l-0.4,0.1l-0.6,0.2c-0.4,0.2-0.8,0.3-1.2,0.5c-0.8,0.4-1.6,1-2.3,1.7c-0.7,0.7-1.2,1.6-1.6,2.5c-0.7,1.8-0.8,3.5-0.9,4.7
	c0,0.3,0,0.6-0.1,0.8c0,0.2-0.1,0.3-0.1,0.4c0,0,0,0-0.1,0.1c-0.1,0-0.1-0.1-0.1-0.1c-0.4-0.2-0.7-0.3-1-0.5
	c-0.3-0.2-0.5-0.3-0.6-0.5c-0.3-0.4-0.6-0.9-0.7-1.7c-0.1-0.8,0-1.7,0.2-2.7c0.1-0.5,0.3-1,0.4-1.4c0.1-0.2,0.2-0.4,0.3-0.6
	c0,0,0-0.1,0.1-0.1l0-0.1l0,0l0.1-0.1l0.2-0.3c0.1-0.1,0.1-0.2,0.1-0.3c0.1-0.2,0.2-0.3,0.2-0.5c0.4-1.3,0.5-2.2,0.5-3
	c0-0.9,0-1.7,0-2.4c-0.1-1.5-0.3-3-0.7-4.5c-0.2-0.7-0.3-1.5-0.5-2.2c0,0,0,0,0,0c0.1,0,0.2,0,0.3-0.1c1-0.4,0.6-1.5,0.6-1.5
	s0.5,0.5,1.2,0s0.6-2-0.8-3.3c-0.4-0.3-0.8-0.6-1.3-0.8c0,0,0,0,0,0c0.5,0,0.9,0,1.1-0.1c1.1-0.3,2.5-1.4,2.4-2.4
	c-0.1-1-1.3-1-1.3-1s0.6-0.4,0.3-1.2c-0.3-0.8-1.7-1.1-3.4-0.1c-0.4,0.2-0.8,0.6-1.1,0.9c0.2-0.5,0.3-0.9,0.3-1.2
	c0.1-1.1-0.5-2.8-1.5-3c-1-0.2-1.3,0.9-1.3,0.9s-0.2-0.7-1-0.7c-0.8,0-1.6,1.3-1.2,3.2c0.1,0.4,0.3,0.8,0.5,1.2
	c-0.4-0.3-0.7-0.5-1-0.6c-0.8-0.3-2-0.3-2.8,0.1c0-0.3,0-0.6,0-1c0-0.6,0.1-1.2,0.2-1.8c0.2-1.3,0.4-2.6,0.7-3.9
	c0.2-1.4,0.5-2.7,0.6-4.1c0-0.3,0.1-0.8,0.1-1.2c0-0.2,0-0.4,0-0.7c0-0.2,0-0.4-0.1-0.7c-0.1-0.9-0.4-1.8-0.7-2.6
	c-0.8-1.6-1.9-2.8-3.2-3.7c-0.6-0.5-1.3-0.9-2-1.2c-0.2-0.1-0.4-0.2-0.7-0.3c0.1,0,0.2-0.2,0.2-0.5c-0.1-0.4-0.7-0.6-1.5-0.3
	c-0.1,0-0.2,0.1-0.3,0.2c0,0-0.1,0-0.1,0c0.1-0.1,0.1-0.2,0.1-0.3c0.1-0.5,0-1.3-0.4-1.4c-0.4-0.2-0.6,0.3-0.6,0.3s0-0.3-0.4-0.4
	c-0.4-0.1-0.8,0.4-0.8,1.3c0,0.2,0.1,0.4,0.1,0.6c-0.1-0.2-0.3-0.3-0.4-0.3c-0.4-0.3-1.2-0.4-1.5,0c-0.3,0.3,0.1,0.7,0.1,0.7
	s-0.3-0.1-0.5,0.3c-0.2,0.3,0.2,0.9,1,1.1c0.2,0,0.3,0.1,0.5,0.1c-0.1,0.1-0.2,0.1-0.3,0.2c-0.4,0.3-0.7,1-0.5,1.4
	c0.2,0.4,0.7,0.1,0.7,0.1s-0.2,0.3,0.1,0.5c0.1,0.1,0.1,0.1,0.2,0.1c0,0,0.1,0.1,0.1,0.1s-0.4-0.1-0.7,0.3c-0.2,0.5,0.2,1.3,1.4,1.5
	c0.2,0.1,0.5,0.1,0.7,0.1c-0.2,0.1-0.3,0.2-0.4,0.2c-0.5,0.4-1,1.4-0.7,2c0.3,0.5,1,0.2,1,0.2s-0.2,0.4,0.1,0.7
	c0.4,0.4,1.3,0.2,1.9-0.8c0.1-0.2,0.3-0.5,0.3-0.7c0,0.3,0.1,0.6,0.1,0.8c0.2,0.6,1,1.4,1.6,1.3c0.6-0.1,0.5-0.9,0.5-0.9
	s0.3,0.4,0.7,0.1c0.1,0,0.1-0.1,0.1-0.1l0,0.1c0,0.1,0,0.2,0,0.4c0,0.2-0.1,0.4-0.1,0.8c-0.3,1.3-0.6,2.6-0.9,3.9
	c-0.3,1.3-0.7,2.6-1,4c-0.2,0.7-0.3,1.4-0.4,2.2c-0.1,0.8-0.2,1.6-0.1,2.5c0,0.5,0.1,1,0.3,1.5c0,0.1,0.1,0.3,0.2,0.5
	c-0.5-0.2-1.1-0.2-1.4,0.1c-0.5,0.5,0,1.1,0,1.1s-0.4-0.2-0.8,0.3c-0.3,0.5,0.1,1.4,1.3,1.9c0.2,0.1,0.5,0.2,0.8,0.2
	c-0.2,0.1-0.4,0.1-0.5,0.2c-0.6,0.4-1.3,1.4-1.1,2c0.3,0.7,1,0.4,1,0.4s-0.3,0.4,0,0.8c0.3,0.5,1.4,0.4,2.2-0.6
	c0.2-0.2,0.4-0.5,0.5-0.8c0,0.4,0,0.7,0,0.9c0.2,0.7,0.9,1.7,1.6,1.7c0.7,0,0.7-0.9,0.7-0.9s0.2,0.4,0.8,0.3
	c0.6-0.2,0.8-1.2,0.2-2.3c-0.2-0.3-0.4-0.6-0.7-0.8c0.3,0.1,0.6,0.2,0.8,0.2c0.1,0,0.1,0,0.2,0c0.2,0.1,0.4,0.2,0.5,0.3
	c0,0.2,0.1,0.4,0.3,0.6c0.4,0.5,0.9,0.4,1.2,0.3c0.1,0.1,0.2,0.2,0.3,0.3c0,0,0,0.1,0.1,0.1c0,0,0,0.1,0,0.1c0,0,0,0,0,0l0.1,0.3
	c0.1,0.4,0.3,1,0.4,1.6c0.1,0.6,0.2,1.2,0.3,1.8c0.2,1.2,0.2,2.4,0.2,3.6c0,0.6,0,1.1-0.1,1.6c0,0.2-0.1,0.5-0.1,0.6
	c0,0.2-0.1,0.3-0.1,0.3c0,0,0,0,0,0c0,0,0,0,0-0.1c0,0,0,0,0-0.1l0,0l-0.1,0.1l-0.1,0.2c-0.1,0.1-0.1,0.2-0.2,0.3
	c-0.3,0.4-0.5,0.8-0.7,1.2c-0.4,0.8-0.7,1.6-1,2.4c-0.5,1.6-0.9,3.4-0.8,5.3c0,1,0.2,2,0.5,3c0.3,1,0.8,2,1.4,2.9
	c0.4,0.5,0.8,1,1.2,1.5c-0.2,0.2-0.5,0.3-0.7,0.5c0.1-0.5-0.2-1.1-0.7-1.2c-0.3-0.1-0.5,0-0.7,0.1c0-0.6-0.2-1.1-0.7-1.1
	c-0.4,0-0.8,0.4-0.9,0.9c-0.1,0-0.2-0.1-0.3-0.1c-0.5,0-0.9,0.5-1,1.1c0,0.1,0,0.1,0,0.2c0,0.1,0,0.1-0.1,0.2c0,0,0,0.1,0,0.1
	c0,0,0,0-0.1,0c-0.3-0.1-0.6-0.2-0.8,0c-0.2,0.1-0.3,0.5-0.4,0.7c-0.1,0.2-0.1,0.5,0,0.8c-0.3,0.2-0.7,0.4-0.9,0.6
	c-0.2-0.5-0.8-0.1-1.1,0.2c0.4-0.5,1-1.8-0.4-2.2c-0.3-0.1-0.5-0.1-0.6,0c0,0,0,0,0-0.1l0-1.2l0-2c0-2.6-0.1-5.3-0.4-8.2
	c-0.2-1.4-0.4-2.9-0.8-4.4c-0.4-1.5-0.8-3-1.5-4.5c-1.2-3-3.1-5.7-5.2-7.9c-0.3-0.3-0.5-0.5-0.8-0.8l-0.8-0.7
	c-0.4-0.4-0.8-0.8-1.2-1.2c-0.8-0.8-1.5-1.6-2.1-2.3c-0.3-0.4-0.5-0.7-0.7-1c-0.1-0.1-0.2-0.3-0.2-0.4c-0.1-0.1-0.1-0.2-0.1-0.2
	c0-0.1,0-0.1-0.1-0.1c0-0.1,0-0.3,0.2-0.8c0.2-0.5,0.4-1.1,0.7-1.9c0.3-0.8,0.5-1.8,0.6-2.7c0.1-1,0.1-2,0-2.9
	c-0.1-0.9-0.3-1.8-0.5-2.7c-0.1-0.4-0.2-0.7-0.3-1.1c-0.1-0.3-0.2-0.7-0.3-1c-0.2-0.7-0.5-1.4-0.8-2.1c-0.6-1.4-1.3-2.9-2.5-4.3
	c-0.6-0.7-1.2-1.4-1.9-2c-0.3-0.3-0.7-0.6-1-0.8c-0.3-0.2-0.6-0.4-0.9-0.6c-0.5-0.4-1-0.7-1.4-1c-0.2-0.1-0.4-0.3-0.5-0.4
	c-0.1-0.1-0.2-0.1-0.3-0.2l-0.1-0.1c0,0,0,0,0,0c0,0-0.1-0.1-0.2-0.3c-0.1-0.2-0.2-0.6-0.3-1c-0.2-0.8-0.2-1.9-0.2-3
	c0-1.1,0.1-2.3,0.2-3.5c0.1-1.2,0.2-2.5,0.4-3.8c0.1-0.7,0.1-1.3,0.2-2c0-0.4,0-0.7,0-1.1c0-0.2,0-0.4,0-0.6l0-0.5
	c0-1.3-0.1-2.6-0.1-3.9c-0.1-1.4-0.2-2.8-0.5-4.3c-0.1-0.8-0.3-1.5-0.6-2.3c-0.3-0.8-0.6-1.6-1-2.4c-0.6-1.1-1.7-1.7-2.8-1.8
	c-0.3-0.4-0.7-0.9-1.1-1.3c-0.1-0.1-0.3-0.3-0.4-0.4c-0.1-0.1-0.3-0.3-0.5-0.4c0,0-0.1,0-0.1-0.1c0.2,0,0.3,0,0.4-0.2
	c0.3-0.4,0.7-1.5,0-1.6c-0.7,0-0.8-0.1-0.8-0.1c0,0,0.2-0.3,0.3-0.4c0.1-0.1,0.5-0.4,0.1-0.8c-0.5-0.4-0.9-0.3-1.1,0
	c-0.1,0.3-0.1,0.5-0.1,0.5s-0.2-0.9-0.6-0.7c-0.4,0.2-0.9,0.5-0.8,0.9c0,0.2,0.1,0.3,0.1,0.3c0,0,0,0,0,0c-0.1-0.3-0.3-0.6-0.5-0.4
	c0,0,0,0,0,0c0,0,0,0,0,0c0.1-0.1,0.1-0.1,0.2-0.2c0.3-0.6,0.7-1.9,0.7-2.7c0.2,0,0.3,0.1,0.5,0c0.5-0.2,0.3-0.7,0.3-0.7
	s0.3,0.2,0.6,0c0,0,0,0,0,0c0.1,0,0.2,0,0.3,0c0.5-0.2,0.3-0.7,0.3-0.7s0.3,0.2,0.6,0c0.3-0.2,0.3-1-0.4-1.6
	c-0.1-0.1-0.2-0.2-0.3-0.2c0.1-0.1,0.1-0.1,0.1-0.2c0,0,0.1,0,0.1,0c0.5-0.1,1.2-0.7,1.2-1.2c0-0.5-0.6-0.5-0.6-0.5s0.3-0.2,0.2-0.6
	c-0.1-0.4-0.9-0.6-1.7-0.1c-0.2,0.1-0.4,0.3-0.6,0.5c0.1-0.2,0.1-0.4,0.2-0.6c0-0.5-0.3-1.4-0.8-1.5c-0.5-0.1-0.7,0.5-0.7,0.5
	s-0.1-0.3-0.5-0.3c-0.3,0-0.6,0.4-0.6,1c-0.1,0.1-0.1,0.2-0.1,0.2s-0.1-0.3-0.5-0.3c0.1-1,0.2-2.1,0.2-3.2c0-1.1,0-2.7-0.8-4.2
	c0.4,0.5,1,0.6,1.3,0.5c0.3-0.1,0.8-0.4,0.8-1c0-0.4-0.4-0.4-0.7-0.4c0-0.1,0.1-0.2,0.1-0.3c0.2-0.7-0.2-1.7-0.2-1.7
	c-0.1-0.2-0.2-0.2-0.3-0.2c-0.1,0.1-1,0.7-1.3,1.1c0.1-0.6-0.3-1.2-0.3-1.2s-0.5,0.4-0.6,1.1c-0.1,0.3,0.1,0.7,0.2,1
	c-0.4-0.4-0.9-0.7-1.3-0.9c-0.7-0.4-1.4-0.6-2-0.8c-1.2-0.4-2.2-0.7-2.9-1.2c-0.8-0.5-1.3-1.3-1.7-2.3c-0.1-0.2-0.2-0.6-0.3-0.8
	c-0.1-0.3-0.2-0.6-0.3-0.9c-0.2-0.6-0.4-1.1-0.6-1.7c-0.4-1.2-0.8-2.3-1.2-3.5c-0.5-1.6-1-3.2-1.4-4.9c0.3-0.3,0.4-1.1-0.1-2
	c-0.2-0.3-0.4-0.5-0.6-0.8c0.3,0.1,0.5,0.2,0.7,0.2c0.7,0.1,1.7-0.3,1.9-0.9c0.2-0.6-0.6-0.8-0.6-0.8s0.4-0.1,0.4-0.6
	c0-0.5-0.8-1-2-0.7c-0.3,0.1-0.6,0.2-0.8,0.3c0.2-0.2,0.4-0.5,0.4-0.6c0.3-0.6,0.2-1.8-0.3-2.1c-0.5-0.3-1,0.3-1,0.3s0-0.4-0.5-0.6
	c-0.5-0.2-1.2,0.4-1.3,1.6c0,0.3,0,0.6,0,0.8c-0.2-0.2-0.3-0.4-0.5-0.6c-0.5-0.4-1.6-0.8-2.1-0.3c-0.5,0.4,0,1,0,1s-0.4-0.2-0.7,0.2
	c-0.3,0.4,0,1.3,1.1,1.8c0.2,0.1,0.5,0.2,0.7,0.2c-0.2,0.1-0.3,0.1-0.5,0.2c-0.6,0.3-1.2,1.3-1,1.9c0.2,0.6,0.9,0.3,0.9,0.3
	s-0.3,0.3,0,0.8c0.3,0.4,1.2,0.4,2-0.5c0.2-0.2,0.3-0.4,0.5-0.7c0,0.3,0,0.6,0,0.8c0.1,0.5,0.5,1.2,1,1.4c0.2,0.9,0.4,1.7,0.6,2.6
	c-0.1,0-0.2,0-0.4,0.1c-0.2,0-0.4,0.1-0.6,0.2c0.1-0.2,0.3-0.3,0.3-0.5c0.2-0.5,0.2-1.3-0.2-1.5c-0.4-0.2-0.7,0.2-0.7,0.2
	s0-0.3-0.3-0.4c-0.4-0.1-0.9,0.3-1,1.2c0,0.2,0,0.4,0,0.6c-0.1-0.2-0.2-0.3-0.3-0.4c-0.4-0.3-1.2-0.6-1.5-0.3c-0.4,0.3,0,0.7,0,0.7
	s-0.3-0.1-0.5,0.2c-0.2,0.3,0,0.9,0.8,1.3c0.2,0.1,0.3,0.1,0.5,0.1c-0.1,0-0.3,0.1-0.3,0.1c-0.4,0.3-0.9,0.9-0.7,1.4
	c0.2,0.4,0.7,0.2,0.7,0.2s-0.2,0.2,0,0.6c0.2,0.3,0.9,0.3,1.5-0.4c0.1-0.1,0.2-0.2,0.2-0.3c0,0.1,0,0.2,0.1,0.2c0,0,0,0,0,0.1
	c-0.1,0-0.3,0-0.5,0.2c-0.2,0.3,0,0.9,0.8,1.3c0.2,0.1,0.3,0.1,0.5,0.1c-0.1,0-0.3,0.1-0.3,0.1c-0.4,0.3-0.9,0.9-0.7,1.4
	c0.2,0.4,0.7,0.2,0.7,0.2s-0.2,0.2,0,0.6c0.2,0.3,0.9,0.3,1.5-0.4c0.1-0.1,0.2-0.3,0.3-0.5c0,0.2,0,0.4,0,0.6c0,0.2,0.1,0.4,0.3,0.6
	c-0.4-0.1-0.8-0.2-1,0c-0.4,0.3,0,0.7,0,0.7s-0.3-0.1-0.5,0.2c-0.2,0.3,0,0.9,0.8,1.3c0.2,0.1,0.3,0.1,0.5,0.1
	c-0.1,0-0.3,0.1-0.3,0.1c-0.4,0.3-0.9,0.9-0.7,1.4c0.2,0.4,0.7,0.2,0.7,0.2s-0.2,0.2,0,0.6c0.2,0.2,0.5,0.3,0.9,0.1
	c0,0.4,0.3,0.9,0.7,1.4c0.2,0.2,0.4,0.4,0.6,0.6c-0.2,0-0.4-0.1-0.6,0c-0.8,0.1-1.9,0.7-2,1.5c-0.1,0.8,0.8,0.8,0.8,0.8
	s-0.5,0.2-0.4,0.8c0.1,0.6,1.1,1,2.4,0.5c0.3-0.1,0.6-0.3,0.8-0.5c-0.2,0.3-0.4,0.6-0.4,0.9c-0.2,0.8,0,2.1,0.7,2.4
	c0.7,0.3,1.1-0.5,1.1-0.5s0,0.5,0.6,0.6c0.6,0.1,1.3-0.7,1.2-2.1c0-0.4-0.1-0.8-0.2-1.1c0.2,0.3,0.5,0.5,0.6,0.6
	c0.7,0.4,2,0.6,2.5,0c0.5-0.6-0.2-1.2-0.2-1.2s0.5,0.1,0.8-0.4c0.1-0.3,0.1-0.6-0.2-0.9c0.3,0.1,0.6,0.3,0.8,0.4
	c0.4,0.2,0.6,0.4,0.7,0.7c0.1,0.2,0.2,0.6,0.3,1l0,0.3l0,0.4c0,0.1,0,0.3,0,0.4l0,0.4c-0.1,1.1-0.2,2.3-0.5,3.4
	c-0.2,0.9-0.4,1.7-0.5,2.7c-0.1,0.1-0.2,0.2-0.3,0.3c-0.1,0-0.2,0-0.3,0.1c-1,0.7-1.9,1.4-1.7,2.3c0.1,0.5,0.3,0.7,0.4,0.7
	c-0.3,0.1-1.1,0.4-1.3,1.7c-0.2,1.7,2,1.4,2,1.4l0.6-0.3c0,0,0.2,2,1.1,2.2c0.3,0.1,0.7-0.1,1-0.2l0.3,0.4l0.3,0.5
	c0.1,0.2,0.2,0.3,0.3,0.4c0,0,0.1,0.1,0.1,0.1c-0.5,0.2-0.7,0.8-0.6,1.3c0,0.2,0.1,0.4,0.1,0.5c0,0-0.1,0-0.1,0
	c-0.3,0-0.7,0-0.9,0.2c-0.2,0.2-0.2,0.6-0.2,0.9c0,0.3,0.1,0.7,0.3,0.9c0.2,0.2,0.4,0.1,0.7,0.1c0.1,0.6,0.6,1,1.3,1
	c0.4,0,0.7-0.1,1-0.4c0.2,0.1,0.4,0.1,0.6,0.1c0.5,0,1-0.3,1.2-0.8c0,0,0,0,0,0c0.2,0,0.4-0.1,0.6-0.2c0.1,0.1,0.1,0.1,0.2,0.2
	c0.3,0.3,0.6,0.7,0.9,1.2c0,0,0,0,0,0c0,0.5,0.1,1.1,0.3,1.6l0.1,0.2c0.1,0.3,0.3,0.7,0.4,1.1c0.1,0.4,0.2,0.9,0.3,1.4
	c0.1,1,0.2,2.1,0.2,3.3c0,1.2,0,2.4,0,3.7l0,0.4l0,0.4c0,0.3,0,0.5-0.1,0.8c0,0.2,0,0.4-0.1,0.6c0,0.1-0.1,0.1-0.1,0.2
	c0-0.3,0-0.6,0-0.8c-0.1-0.7-0.8-1.7-1.4-1.7c-0.7,0-0.7,0.8-0.7,0.8s-0.2-0.4-0.7-0.3c-0.5,0.1-0.8,1.1-0.2,2.2
	c0.1,0.2,0.3,0.4,0.4,0.6c-0.2-0.1-0.4-0.1-0.5-0.2c-0.7-0.1-1.8,0.2-2,0.8s0.5,0.9,0.5,0.9s-0.5,0.1-0.5,0.6c0,0.6,0.8,1.1,2,0.9
	c0.3,0,0.6-0.1,0.8-0.3c-0.2,0.2-0.4,0.5-0.5,0.7c-0.3,0.6-0.4,1.8,0.1,2.2c0.5,0.4,1-0.2,1-0.2s-0.1,0.5,0.4,0.7
	c0.1,0.1,0.3,0.1,0.4,0c-0.1,0.6-0.1,1.2-0.1,1.8c-0.1,1.4-0.1,2.9,0.1,4.6c0.1,0.8,0.3,1.7,0.6,2.7c0.3,1,0.9,2,1.7,3
	c0.1,0.1,0.2,0.2,0.3,0.4l0.2,0.2c0.1,0.1,0.3,0.3,0.4,0.4c0.3,0.3,0.6,0.5,0.9,0.8c0.6,0.5,1.2,1,1.7,1.3c1,0.8,1.4,1.1,1.8,1.7
	c0.4,0.6,0.8,1.4,1.2,2.4c0.2,0.5,0.3,1,0.5,1.5c0.1,0.3,0.2,0.5,0.2,0.8c0.1,0.3,0.2,0.6,0.2,0.7c0.1,0.4,0.1,0.8,0.2,1.1
	c0,0.3,0,0.6-0.1,0.9c-0.1,0.3-0.1,0.6-0.3,1c-0.1,0.4-0.4,0.9-0.7,1.6c-0.3,0.7-0.6,1.7-0.8,2.9c-0.2,1.2-0.1,2.5,0.2,3.6
	c0.1,0.6,0.3,1.1,0.5,1.6c0.2,0.5,0.4,0.9,0.6,1.3c0.4,0.8,0.9,1.6,1.3,2.2c0.9,1.3,1.9,2.4,2.8,3.5c0.5,0.5,1,1,1.4,1.5l0.3,0.3
	l0.3,0.3c0.2,0.2,0.3,0.4,0.5,0.6c1.2,1.4,2.1,2.9,2.8,4.5c-1.4-0.1-3-0.6-4.2-1.1c-0.3-0.1-0.6-0.2-0.7-0.3c0,0,0,0,0,0
	c-0.1-0.4-0.3-0.8-0.5-1.3c-0.2-0.6-0.5-1.2-0.7-1.9c-0.3-0.6-0.6-1.3-0.9-1.8c-0.2-0.3-0.3-0.6-0.5-0.8l-0.3-0.4l-0.1-0.2l-0.2-0.3
	l-0.4-0.5c-0.1-0.2-0.3-0.3-0.4-0.5c-0.3-0.3-0.6-0.6-0.9-1c-0.7-0.6-1.3-1-1.8-1.3c-0.5-0.3-0.8-0.5-0.9-0.5
	c-0.1-0.1-0.2-0.1-0.3-0.2c-0.1,0-0.1-0.1-0.2-0.2c0,0-0.1-0.1-0.1-0.2l-0.1-0.2c-0.1-0.1-0.1-0.3-0.2-0.5c0-0.1-0.1-0.2-0.1-0.3
	l-0.1-0.3c-0.1-0.4-0.2-0.8-0.3-1.2c-0.2-0.8-0.3-1.7-0.4-2.8c-0.1-0.6-0.1-1.3-0.3-2.1c-0.2-0.8-0.5-1.6-0.9-2.3
	c-0.1-0.2-0.2-0.4-0.3-0.5l-0.3-0.5l-0.1-0.1l0-0.1l-0.1-0.1l-0.2-0.3c-0.2-0.2-0.3-0.4-0.5-0.5c-0.7-0.7-1.5-1.1-2.2-1.4
	c-0.7-0.3-1.4-0.5-2.1-0.6c-0.4-0.1-0.9-0.1-1.3-0.2c0.5-0.3,1-0.9,1-1.4c-0.1-0.7-0.9-0.7-0.9-0.7s0.4-0.3,0.2-0.8
	c-0.2-0.6-1.3-0.8-2.4-0.1c-0.2,0.1-0.4,0.3-0.7,0.5c0,0-0.1,0-0.1,0c0.1-0.3,0.2-0.6,0.2-0.8c0.1-0.8-0.4-2-1.1-2.2
	c-0.7-0.2-1,0.7-1,0.7s-0.1-0.5-0.7-0.5c0,0,0,0,0,0c-0.2-0.4-0.5-0.7-0.8-0.9c0.6-0.5,0.7-1.3,0.2-2.1c0-0.1-0.1-0.1-0.1-0.2
	c0.1-0.2,0.1-0.4,0.1-0.6c0-0.5-0.3-1-0.6-1.3c-0.1-0.1-0.1-0.2-0.2-0.2c0.4-0.3,0.6-0.8,0.6-1.3c0-1-0.8-1.8-1.8-1.8
	c-0.5,0-0.9,0.2-1.2,0.5c-0.1-0.6-0.4-1.1-0.8-1.4l-0.1-0.1l0,0l0,0l-0.1,0l-0.4-0.4l-0.5-0.4c-0.2-0.1-0.3-0.3-0.5-0.4
	c-0.3-0.3-0.8-0.5-1.2-0.8c-0.5-0.2-1-0.3-1.4-0.4c-0.8-0.1-1.4-0.2-2.1-0.3c-0.7-0.1-1.3-0.3-1.9-0.5c0-0.3-0.2-0.5-0.2-0.5
	s0.4,0.2,0.8-0.2c0.4-0.5,0-1.5-1.2-2c-0.3-0.1-0.6-0.2-1-0.3c0.3-0.1,0.6-0.2,0.8-0.3c0.7-0.4,1.5-1.4,1.2-2c-0.2-0.7-1-0.4-1-0.4
	s0.4-0.4,0-0.9c-0.3-0.5-1.4-0.5-2.3,0.5c-0.2,0.2-0.4,0.5-0.6,0.8c0-0.3,0-0.6,0-0.8c-0.1-0.8-0.8-1.8-1.6-1.8
	c-0.7,0-0.7,0.9-0.7,0.9s-0.2-0.4-0.8-0.3c-0.6,0.2-0.9,1.2-0.3,2.3c0.1,0.2,0.3,0.5,0.5,0.7c-0.2-0.1-0.4-0.1-0.5-0.2
	c-0.8-0.1-2,0.2-2.2,0.9c-0.2,0.7,0.6,1,0.6,1s-0.5,0.1-0.5,0.7c0,0.6,0.8,1.2,2.1,1c0.3,0,0.6-0.1,0.9-0.3
	c-0.3,0.3-0.5,0.5-0.6,0.7c-0.4,0.7-0.4,1.9,0.1,2.4c0.6,0.4,1.1-0.2,1.1-0.2s-0.1,0.5,0.5,0.7c0.5,0.2,1.1-0.2,1.5-1.1
	c0,0,0,0,0.1,0c0.3,0.3,0.7,0.5,1,0.7c-0.7,0.5-1.3,1.6-1,2.3c0.3,0.7,1.2,0.4,1.2,0.4s-0.4,0.4,0.1,1c0.4,0.5,1.6,0.4,2.6-0.8
	c0.3-0.4,0.6-1,0.8-1.5c0.7,0.2,1.5,0.3,2.1,0.4c0.3,0.1,0.5,0.1,0.7,0.2c0.2,0.1,0.4,0.2,0.6,0.4c0.1,0.1,0.2,0.2,0.3,0.3
	c-0.4,0.4-0.5,1-0.4,1.7c0,0.1,0,0.1,0,0.2c-0.1,0-0.2,0.1-0.3,0.2c-0.1,0.1-0.2,0.3-0.2,0.5c-0.4,0-0.8,0.1-1,0.3
	c-0.3,0.3-0.3,0.9-0.3,1.4c0,0.5,0.1,1.1,0.4,1.4c0.3,0.3,0.7,0.2,1.1,0.2c0,0.3,0.1,0.5,0.3,0.7c-0.8-0.2-1.6,0-1.8,1.4
	c0,0.4,0,0.7,0.1,0.9c-0.6,0-1.2,0.4-1.3,1.4c-0.3,2.4,2.4,1.1,2.4,1.1c-0.9,0.6-0.8,1.9,0.2,2.3c0.8,0.3,1.5-0.6,1.7-1
	c0,0.3-0.1,0.7,0,1.1c0,0.4,0.1,0.8,0.3,1.2c0.2,0.4,0.5,0.8,0.8,1.1c0.3,0.3,0.7,0.5,1,0.6l0.2,0.1l0.1,0.1l0.3,0.1
	c0.1,0,0.3,0.1,0.4,0.1c0,0.3,0,0.6,0.2,0.8c0.5,0.6,1.2,0,1.2,0s-0.2,0.5,0.3,0.8c0.4,0.3,1.1,0.1,1.7-0.7c0.1,0,0.2,0,0.3,0
	c0.4,0.2,0.8,0.4,1.2,0.4l0.3,0l0.4,0c0.3,0.1,0.6,0.2,0.9,0.1c0,0,0,0,0,0c0.4,0,0.9,0.1,1.3,0.2c0.8,0.2,1.6,0.5,2,0.8
	c0.2,0.2,0.3,0.3,0.4,0.4c0,0,0,0,0,0c0,0,0,0,0,0v0l0,0l0,0.1l0.1,0.2c0,0.1,0,0.1,0.1,0.2c0.1,0.3,0.1,0.4,0.1,0.7
	c0,0.3,0,0.6,0,1c-0.1,0.9-0.1,2.2,0,3.5c0,0.6,0.1,1.3,0.2,1.9l0.1,0.5c0,0.2,0,0.3,0.1,0.5c0.1,0.3,0.1,0.7,0.2,1l0.2,0.5
	c0.1,0.2,0.1,0.4,0.2,0.6c0.2,0.4,0.3,0.8,0.5,1.2c0.4,0.8,1,1.6,1.6,2.2c0.6,0.6,1.2,1.1,1.6,1.4c0.4,0.3,0.5,0.5,0.6,0.6
	c0,0.1,0.1,0.1,0.1,0.2c0,0,0,0.1,0.1,0.1c0,0.1,0,0.1,0.1,0.1l0.2,0.5c0.1,0.2,0.2,0.4,0.2,0.6c0.1,0.4,0.2,0.7,0.3,1
	c0.1,0.3,0.2,0.7,0.2,1.1c0.1,0.4,0.2,1,0.3,1.6c0.1,0.3,0.2,0.6,0.3,1c0,0.2,0.1,0.3,0.1,0.5l0,0.1l0,0.1c0,0,0,0,0,0.1
	c0.1,0.2,0.2,0.5,0.3,0.7c0.1,0.1,0.1,0.2,0.2,0.3l0.2,0.3l0.2,0.3c0.1,0.1,0.1,0.1,0.2,0.2c0.1,0.1,0.2,0.3,0.3,0.4
	c0.1,0.1,0.2,0.2,0.3,0.3c0.4,0.5,0.8,0.8,1.1,1.1c0.7,0.6,1.3,1,2,1.4c1.2,0.8,2.4,1.4,3.6,1.9c1.2,0.5,2.4,1,3.8,1.3
	c0.7,0.2,1.4,0.3,2.3,0.4c0.3,0,0.7,0.1,1.2,0.1c0,0.4,0,0.8,0,1.2l-0.1,1.8l-0.1,0.7l-0.1,0.8c0,0.3-0.1,0.5-0.1,0.8
	c-0.3-0.5-0.7-0.9-1.1-1c-0.8-0.2-1,0.7-1,0.7s-0.2-0.5-0.9-0.5c-0.7,0-1.3,1-0.8,2.4c0.1,0.3,0.3,0.7,0.5,1
	c-0.3-0.2-0.7-0.4-0.9-0.5c-0.9-0.3-2.4-0.2-2.7,0.5c0,0,0,0.1,0,0.1c0,0,0,0,0,0c-0.5-0.5-1-0.9-1.7-1.2c-0.5-0.3-1.2-0.6-1.9-1.1
	c-0.7-0.5-1.5-1.1-2.4-1.8c-0.9-0.7-1.9-1.3-2.9-2c-0.3-0.2-0.5-0.3-0.8-0.5l-0.4-0.2c-0.1-0.1-0.3-0.1-0.4-0.2l-0.9-0.4
	c-0.3-0.1-0.6-0.2-0.9-0.3c-2.3-0.9-4.8-1.3-7.1-1.3c0-0.1-0.1-0.3-0.1-0.4c-0.1-0.8-0.2-1.7-0.2-2.7c-0.1-1-0.1-2.1-0.3-3.3
	c-0.2-1.2-0.5-2.5-1.3-3.8c-0.4-0.7-0.9-1.3-1.5-1.8c-0.2-0.1-0.3-0.2-0.5-0.4l-0.2-0.2l0,0c0,0,0,0,0,0c0.5-0.1,1.1-0.5,1.3-1.4
	s-1.3-0.6-1.3-0.6c0.5-1.2-2.1-1.3-2.1-1.3c0.6-1-0.1-2.4-0.1-2.4s-0.7,0.5-1,1.5c0,0,0,0,0,0c-0.2-0.7-0.4-1.5-0.5-2.3
	c0-0.1,0-0.1,0-0.2c0.5-0.3,0.3-1,0.3-1s0.4,0.4,0.9,0.1c0.6-0.3,0.6-1.5-0.4-2.5c-0.2-0.3-0.6-0.5-0.9-0.7c0.4,0.1,0.7,0.1,0.9,0.1
	c0.8-0.1,2-0.8,2-1.6c0-0.8-0.9-0.8-0.9-0.8s0.5-0.2,0.4-0.9c-0.1-0.6-1.2-1-2.5-0.4c-0.3,0.1-0.6,0.3-0.9,0.6
	c0.2-0.3,0.3-0.6,0.3-0.8c0.1-0.8-0.2-2.2-0.9-2.4c-0.7-0.3-1.1,0.6-1.1,0.6s-0.1-0.5-0.7-0.6c-0.6-0.1-1.3,0.9-1.1,2.3
	c0,0.3,0.1,0.6,0.2,0.9c-0.2-0.2-0.3-0.3-0.5-0.4c-0.7-0.4-2.1-0.5-2.6,0.1c-0.5,0.6,0.2,1.2,0.2,1.2s-0.5-0.1-0.8,0.5
	c-0.3,0.6,0.4,1.5,1.8,1.8c0.3,0.1,0.7,0.1,1,0.1c-0.4,0.2-0.7,0.3-0.9,0.5c-0.6,0.6-1.2,1.8-0.7,2.5c0.4,0.7,1.2,0.2,1.2,0.2
	s-0.3,0.5,0.2,0.9c0.4,0.4,1.4,0.2,2.1-0.8c0,0.3-0.1,0.6-0.1,1c0,0.9,0,1.9,0.1,2.8c-0.1,0-0.1,0-0.2,0c-2.4-0.1-0.9,2.5-0.9,2.5
	c-0.3-0.4-0.8-0.6-1.3-0.5c-0.4-0.3-0.9-0.5-1.5-0.3c-1.1,0.4-0.3,1.3,0.1,1.7c-0.6-0.4-2.5-1.1-2.7,1c-0.3,2.4,2.4,1.1,2.4,1.1
	c-0.9,0.6-0.8,1.9,0.2,2.3c0.7,0.3,1.3-0.4,1.6-0.9c0.3,0.1,0.6,0.2,0.8,0.2c0.2,0.2,0.5,0.3,0.7,0.4c-0.2,0.3-0.2,0.8-0.2,1.2
	c0,0.1,0,0.1,0,0.2c-0.3,0-0.6,0.1-0.7,0.3c-0.3,0.3-0.3,0.9-0.3,1.4c0,0.5,0.1,1.1,0.4,1.4c0.3,0.3,0.7,0.2,1.1,0.2
	c0.1,0.9,1,1.6,2.1,1.6c0.6,0,1.2-0.2,1.5-0.6c0.3,0.1,0.6,0.2,0.9,0.2c0.1,0,0.2,0,0.3,0c-0.1,0.8-0.2,1.7-0.2,2.8
	c0,0.6,0,1.2,0.1,2c0.1,0.7,0.3,1.6,0.8,2.6c0.1,0.1,0.1,0.2,0.2,0.4c0.1,0.1,0.2,0.2,0.2,0.4c0.1,0.1,0.2,0.2,0.3,0.4
	c0.1,0.1,0.2,0.2,0.3,0.3c0.2,0.2,0.4,0.5,0.7,0.6c0.1,0.1,0.3,0.2,0.4,0.3l0.2,0.1l0.2,0.1c0.3,0.1,0.5,0.3,0.8,0.4
	c0.3,0.1,0.5,0.2,0.8,0.3c0.1,0,0.3,0.1,0.4,0.1l0.4,0.1l0.4,0.1l0.1,0l0,0l0.1,0c1.6,0.3,3,0.9,4.2,1.6c0.2,0.1,0.3,0.2,0.5,0.3
	l0.4,0.3c0.1,0.1,0.1,0.1,0.2,0.2l0.2,0.2l0.4,0.3c0.6,0.5,1.1,1,1.7,1.7c0.6,0.6,1.3,1.4,2,2.2c0.8,0.8,1.7,1.6,2.8,2.5l0.3,0.2
	c0.3,0.2,0.6,0.4,0.9,0.6c0.9,0.4,1.9,0.6,2.9,0.5c0.1,0,0.2,0,0.2,0.1c0.4,0.1,0.7,0.3,1.1,0.4c0.7,0.3,1.2,0.7,1.6,1.1
	c0.4,0.4,0.6,0.8,0.8,1.2c0.1,0.4,0.2,0.9,0.2,1.6l0,0.2l0,0.1l0,0.1l0,0.1l-0.1,0.8c0,0.5-0.1,1.1-0.2,1.6
	c-0.1,0.5-0.2,1.1-0.2,1.6c0,0.1,0,0.2,0,0.2c0,0.1-0.1,0.2-0.1,0.3l-0.1,0.2l0,0c-1.4,1.5-2.3,3.6-2.1,5.9l0,0.5l0,0.5
	c-0.4,1.2-0.4,2.5,0,3.7c0,0.5,0,1-0.1,1.5c0,0.2,0,0.4-0.1,0.6c-0.3,0.2-0.7,0.5-1.2,0.9c-0.6,0.4-1.4,0.9-2.4,1.8
	c-0.5,0.4-1.1,0.9-1.7,1.7c-0.3,0.4-0.7,0.8-1.1,1.3c-0.4,0.5-0.7,1.2-1.1,2c-0.3,0.8-0.6,1.7-0.8,2.7c0,0.2-0.1,0.5-0.1,0.8l0,0.2
	l0,0.3l0,0.3c-1.2-0.5-2.4-0.9-3.6-1.1l-0.4-0.1c-0.1,0-0.2,0-0.3-0.1c-0.2,0-0.4-0.1-0.6-0.2c-0.4-0.1-0.8-0.3-1.2-0.5
	c-0.8-0.4-1.6-1.1-2.4-1.8c-0.7-0.8-1.4-1.7-2-2.6c-0.3-0.5-0.6-1-0.9-1.5c-0.1-0.2-0.2-0.3-0.2-0.5c0.2-1.1-0.1-2.2-0.9-3.1
	c0-0.1,0-0.2,0-0.2c0-0.3,0-0.7,0.1-1.1l0-0.3l0,0l0-0.1l0-0.2l0.1-0.4c0-0.1,0-0.3,0.1-0.4c0-0.2,0-0.3,0-0.5c0-0.1,0-0.2,0-0.2
	l0-0.3c0-0.2,0-0.3-0.1-0.5c-0.1-0.4-0.2-0.8-0.4-1.2c0.3-0.1,0.6-0.3,0.9-0.7c0.7-0.1,1.3-0.5,1.6-1.7c0.9-3.1-3.1-1.9-3.1-1.9
	c1.4-0.6,1.5-2.4,0.2-3.2c-0.9-0.5-1.8,0.2-2.3,0.7c-0.2,0.1-0.4,0.2-0.6,0.3c-0.2-0.2-0.4-0.5-0.7-0.8c0-0.1,0-0.2-0.1-0.2
	c-0.2-0.2-0.4-0.3-0.5-0.3c-0.1-0.1-0.2-0.1-0.3-0.1c0-0.1,0-0.3-0.2-0.4c-0.3-0.3-1.1-0.1-1.6,0.7c-0.2,0-0.4,0.1-0.6,0.2
	c-0.3-0.5-1-1.2-1.6-1c-0.6,0.2-0.4,0.8-0.4,0.8s-0.3-0.3-0.7-0.1c0,0,0,0,0,0c0,0-0.1,0-0.1,0c-0.6,0.2-0.4,0.8-0.4,0.8
	s-0.3-0.3-0.7-0.1c0,0-0.1,0.1-0.1,0.1c-0.7-0.9-1.4-1.7-2.1-2.5c-0.2-0.2-0.5-0.4-0.7-0.6c0.2-0.1,0.4-0.3,0.5-0.5
	c0.3-0.7-0.5-1-0.5-1s0.5,0,0.6-0.6c0.1-0.5-0.6-1.2-1.8-1.2c0.3-0.4,0.5-0.9,0.4-1.2c-0.2-0.6-0.9-0.4-0.9-0.4s0.3-0.3,0-0.8
	c-0.3-0.5-1.2-0.5-2.1,0.4c-0.2,0.2-0.4,0.5-0.6,0.7c0-0.3,0.1-0.6,0-0.8c-0.1-0.7-0.7-1.6-1.4-1.6c-0.7,0-0.7,0.8-0.7,0.8
	s-0.2-0.4-0.7-0.3c-0.5,0.1-0.8,1-0.3,2.1c0.1,0.2,0.3,0.5,0.5,0.7c-0.3-0.1-0.5-0.2-0.7-0.2c-0.7-0.1-1.8,0.2-2,0.8
	s0.5,0.9,0.5,0.9s-0.5,0.1-0.5,0.6c0,0.5,0.7,1.1,1.9,0.9c0.2,0,0.5-0.1,0.7-0.2c-0.1,0.2-0.2,0.3-0.3,0.4c-0.3,0.6-0.4,1.8,0.1,2.2
	c0.5,0.4,1-0.2,1-0.2s-0.1,0.4,0.4,0.7c0.2,0.1,0.5,0,0.8-0.2c0,0.5,0.2,1.4,0.7,1.5s0.7-0.4,0.7-0.4s0.1,0.3,0.5,0.3
	c0.2,0,0.5-0.2,0.6-0.5c0.1,0.1,0.2,0.2,0.2,0.3c0.6,0.8,1.1,1.7,1.5,2.6c0.1,0.3,0.2,0.5,0.3,0.8c-0.1,0.2-0.1,0.4-0.1,0.4
	s-0.2-0.4-0.7-0.2c-0.5,0.2-0.8,1.1-0.1,2.1c0.1,0.2,0.3,0.5,0.5,0.7c-0.3-0.1-0.5-0.2-0.7-0.2c-0.7-0.1-1.8,0.3-2,0.9
	c-0.2,0.6,0.6,0.9,0.6,0.9s-0.4,0.1-0.5,0.6c0,0.5,0.8,1.1,2,0.8c0.2-0.1,0.5-0.1,0.7-0.2c-0.1,0.2-0.2,0.3-0.3,0.4
	c-0.3,0.6-0.3,1.8,0.3,2.1c0.6,0.4,1-0.3,1-0.3s-0.1,0.4,0.5,0.6c0.5,0.2,1.3-0.4,1.4-1.6c0-0.3,0-0.6,0-0.8
	c0.2,0.3,0.3,0.5,0.5,0.7c0.5,0.5,1.6,0.9,2.1,0.5c0.5-0.4,0.1-1,0.1-1s0.4,0.2,0.7-0.2c0.1-0.1,0.1-0.3,0.1-0.5
	c0.3,0.1,0.6,0.2,0.9,0.3c0.3,0.1,0.6,0.2,0.9,0.3c-0.2,0.5-0.3,0.9-0.4,1.4c-0.3,0.2-0.3,0.6-0.2,0.9c0,0.1-0.1,0.2-0.1,0.3
	c0,0.1,0,0.1,0,0.1c-0.5-0.2-1.1,0.1-1.2,0.7c-0.2,0.7,0.9,1.2,1,1.1c0,0-1,1.2-0.5,1.5c0.4,0.2,0.8,0.3,1.1,0.3
	c0,0.1,0.1,0.2,0.1,0.3c0,0,0,0.1,0.1,0.1c-0.1,0-0.2,0-0.2,0c-0.1,0-0.1,0-0.2,0c-0.2,0-0.4,0.1-0.5,0.1c-0.1-0.3-0.4-0.9-1.5-1.1
	c-0.8-0.1-1.1,0.3-1.3,0.8c-1.5-0.2-1.3,1.7-1.3,1.7l0,0c-0.3,0.1-0.6,0.3-0.7,0.6c0,0,0,0,0,0c-0.5,0.1-1.1,0.3-1.2,0.8
	c0,0.2,0,0.3,0,0.5c-0.4,0.1-0.8,0.1-1.3-0.1c-0.6-0.2-1.2-0.6-1.7-1.2c-0.5-0.5-1-1.1-1.4-1.8c0.3-0.4-0.1-0.9-0.1-0.9
	s0.4,0.2,0.7-0.2s0-1.3-1.1-1.8c-0.3-0.1-0.6-0.2-1-0.3c0.3-0.1,0.5-0.2,0.7-0.2c0.6-0.3,1.3-1.3,1-1.9c-0.2-0.6-1-0.4-1-0.4
	s0.3-0.3,0-0.8c-0.3-0.4-1.3-0.4-2.1,0.5c-0.2,0.2-0.4,0.5-0.5,0.8c0-0.3,0-0.6,0-0.8c-0.1-0.7-0.8-1.6-1.5-1.6
	c-0.7,0-0.6,0.8-0.6,0.8s-0.2-0.4-0.7-0.2c-0.5,0.2-0.8,1.1-0.1,2.1c0.1,0.2,0.3,0.5,0.5,0.7c-0.3-0.1-0.5-0.2-0.7-0.2
	c-0.7-0.1-1.8,0.3-2,0.9c-0.2,0.6,0.6,0.9,0.6,0.9s-0.4,0.1-0.5,0.6c0,0.5,0.8,1.1,2,0.8c0.2-0.1,0.5-0.1,0.7-0.2
	c-0.1,0.2-0.2,0.3-0.3,0.4c-0.3,0.6-0.3,1.8,0.3,2.1c0.6,0.4,1-0.3,1-0.3s-0.1,0.5,0.5,0.6c0.5,0.2,1.3-0.4,1.4-1.6
	c0-0.2,0-0.4,0-0.6c0,0.1,0.1,0.2,0.1,0.3c0.1,0.5,0.3,0.9,0.5,1.4c0.3,0.7,0.7,1.5,1.1,2.2c-0.6,0.3-1.7,1-1.1,1.6
	c0.3,0.3,0.5,0.5,0.6,0.6c0,0.1,0,0.1,0,0.2c-0.1,0-0.4,0.1-0.5,0.2c-0.2,0-0.9-0.1-0.7,0.8c0.2,0.8,0.7,1.1,1.1,0.9
	c0.4-0.2,0.5-0.4,0.5-0.4s-0.6,1.1,0.1,1.3c0.7,0.1,1.3,0.2,1.6-0.3c0.1-0.3,0.1-0.4,0.1-0.4c0.2,0.1,0.6,0.3,1.2-0.2
	c0.2-0.2,0.3-0.4,0.2-0.5c0.2,0.1,0.6,0.1,1-0.3c0,0,0,0,0.1-0.1c0.1,0,0.3,0.1,0.4,0.1c0.5,0.1,0.9,0.1,1.4,0.1
	c0.1,0.2,0.2,0.3,0.3,0.4c0.9,0.5,3.4,1.4,3.4-0.1c0,0,0,0,0,0c0.7,0,1.2-0.1,1.2-0.8c0,0,0-0.1,0-0.1c0.3,0.3,0.9,0.9,1.6,0
	c0.1-0.1,0.2-0.2,0.2-0.3c0.3,0.1,0.6,0.1,1-0.5c0.2-0.3,0.4-0.6,0.4-0.9c0.3,0,0.6,0,0.9,0.1c0.7,1.4,1.5,2.8,2.5,4.1
	c1,1.3,2.3,2.6,3.8,3.6c0.7,0.5,1.5,1,2.4,1.4c0.4,0.2,0.9,0.4,1.3,0.5c0.2,0.1,0.4,0.2,0.7,0.2c0.1,0,0.2,0.1,0.3,0.1l0.2,0l0.1,0
	c0,0,0,0,0,0c0.8,0.3,1.5,0.7,2.2,1.2c0.7,0.6,1.3,1.3,1.9,2.1c0.1,0.1,0.1,0.2,0.2,0.3c-0.1,0.3-0.1,0.6-0.2,0.8
	c-0.1,0.6-0.3,1.1-0.4,1.7c-0.3,1.1-0.8,2.3-1.3,3.4c-0.3,0.6-0.5,1.2-0.8,1.8l-0.5,0.9c-0.3,0.6-0.6,1.2-0.8,1.9
	c-0.5,1.2-0.9,2.5-1.1,3.7c-0.3,1.2-0.4,2.3-0.5,3.3c-0.1,1-0.2,1.9-0.3,2.6c0,0.4-0.1,0.7-0.1,1c0,0.2,0,0.3-0.1,0.4l-0.1,0.2
	c-0.3,0.6-0.5,1.1-0.8,1.6c-0.6,1.1-1.2,2.1-1.9,3c-0.7,1-1.5,1.9-2.2,2.7c-0.4,0.4-0.8,0.8-1.2,1.1c-0.1,0.1-0.3,0.2-0.4,0.4
	l-0.6-1.1v1.5c-0.8,0.6-1.4,1.2-2,2l-1.9-6.4l0.7,8l-1.2-2.2l0,2.2l-3.3-0.8c0,0-2.2,0.6-4.7,0.3c-2.6-0.3-17.8-2-17.8-2l-4.3-0.5
	c1.3-2.4,3.3-5.3,3.3-5.3c-3.2,0.9-5.6,2.5-5.6,2.5c0.4-2.8,3.8-6.1,3.8-6.1c-4.2,1.4-6.8,4.5-6.8,4.5c-0.1-0.5-0.1-1.1,0-1.8
	c0.3-0.4,0.7-0.9,1.2-1.5c3-3.6,8.6-7.2,8.6-7.2s-4.7,1.2-8.8,4.7c0.8-2.3,1.7-4.3,1.7-4.3c-1.2,0.6-2.4,1.6-3.5,2.8
	c0.2-0.4,0.4-0.8,0.6-1.2c0,0-3.5,1.7-5.3,5.9c0.4-3.6,1.9-7.5,1.9-7.5c-0.8,0.4-1.4,0.8-2,1.3c0-0.1,0-0.2,0.1-0.3
	c0,0-0.1,0.2-0.2,0.4c-2.7,2.2-3.7,4.8-3.7,4.8c-0.2-2.7,2.5-8.8,2.5-8.8c-2.3,1.6-3.9,3-5.1,4.2c0-0.1,0-0.2,0-0.3
	c0.1-0.3,0.3-0.6,0.1-0.9c0.6-2.9,1.5-6.3,2.8-8.9c3-5.9,5.5-7.7,5.5-7.7l-1-0.7c-5.4,4.7-7.6,12.9-8.4,16.8c-0.2,0-0.3-0.1-0.4-0.1
	v-55.8l-8.4-2c-4.7,3.3-10,6.6-15.3,9.8v41.4l-2.8-39.7c-5.8,3.5-11.4,6.8-16,9.9l0,0v-6.2c0.3-0.2,0.6-0.4,0.9-0.5v-7.6l8.4,2.9
	c1.9-1,4-2.3,6.3-3.7l-0.5-6.6l3.6-83.3v87.8c7.2-4.6,14.9-9.8,17.8-12c0.8-0.6,1.6-1.1,2.3-1.6l1.4-73.5l1-1.8v73.4
	c0.5-0.4,0.9-0.9,1.3-1.4v-27.7c-0.1-0.2-0.2-0.3-0.2-0.3v-8c0.1,0,0.1,0.1,0.2,0.1V130l8-1l3-59L153,59.7v15.7l-4.5,12l-8,1.3
	l-0.9,7.2l9.9,5.8l-0.4,13.2l-2.3,1.2l-0.6,1.7h-2.1c0,0,1.8-1.5,1.7-9.3c-0.1-7.7-9.4-9.9-9.4-9.9v-4.9l3.1-9.3h8.7l2.6-9.3
	l-1.3-1.5l-9.1-0.4l-0.9,1.5l-2.4-2.6l0.4-4.1l0.8-4.4l-1.7-1.4V24.5c0,0.1,0,0.2,0,0.3v6.6c0,0,3-3.7,2.7-6.9l3.3-3.5l-4.5-0.3
	c-0.1-0.2-0.2-0.3-0.2-0.4c-0.4-0.7-0.8-1.2-1.2-1.7v-1.1l0.5-2.1v-2.8l0.4-2l0.8-0.9V4.3l-0.9-1.6l-0.5-1.6c0,0-0.1-1.5-3-1.5
	c-2.9,0-3.1,1.5-3.1,1.5l-0.2,1.6l-0.7,1.6l0,5.4l1.2,0.9l0.2,2l0,1.9c-0.4-0.7-0.6-1.7-0.7-3.3l-1.5-0.9V7c0,0-2.4,2.5-1.6,4.9
	c0.8,2.4,0,2.4,1.6,4.1c1.1,1.3,1.5,1.6,2.6,2.6v24.6c-0.1,0.1-0.1,0.1-0.2,0.2l-4-2l1,5.4c-0.7,0.8-1.5,1.8-2.3,2.8l0.3-11.4
	l-5-1.8l1,18.1c-2.5,3.6-4.3,7.2-3.3,8.8c2.4,4.1,6.1,9.5,6.4,10h-7.7l-1.3,1.9l2.6,9h-1.3l-3.5-9.4l-0.4-15L98.7,70l1.4,29.7
	c-0.6,0.9-7.9,12.2-11.1,18.3c-3.3,6.5-4.4,11.4,0,16.3c0.6,0.7,1.3,1.4,2,2.1l-1.9,9.8c0,0,5.1-2.7,8.1-4.6c2.1,1.6,3.8,2.7,4.2,3
	v5.5l1.3,1.3l5.5,2.4v1.8l-5.5-1.8h-1.3v8l1.3,0.9l5.5,2.4V193l7.2,4.9v17l-7.2-4.4V221l7.3,4.8v4.6c0,0,0,0,0,0
	c-6.4,4-12.8,8.8-15.7,13.2c-2.3,3.5-2.3,8.8-0.3,13.9l-4.3,6.1l8.8,1.1c1,1.1,2.1,2.2,3.4,3.1c0.2-1.7,0-4.1,1.8-6.5
	c-0.5-0.6-1-1.1-1.5-1.7c-1.7-2.2-4.7-6.8-4-10.9c0.5-1.8,1.6-3.7,3.6-5.8c0.3-0.3,0.6-0.6,0.9-0.9c0,0-0.1,0.1-0.1,0.1v7.1l4.7,3.2
	c0,1.2,0,2.5-0.1,3.7c0,1.5-0.2,2.7-1.3,4c-1,1.3-2,3.2-2.3,4.9c-0.1,0.7-0.2,1.3-0.4,1.9l-0.7-0.4v2.5c-0.1,0.1-0.1,0.2-0.1,0.4
	c-0.3,0.6-0.3,1.3-0.3,2c0,1.5-0.1,3,0.4,4.5v1.2l0.2,0.1c-1.1,0.4-2.1,0.9-3.1,1.2c-0.1-3.2-0.9-6.9-3.4-10c0,0,0.9,4.1,1.1,8.1
	c-1.7-2.2-4.2-4.2-8.1-5.4c0,0,5.4,4.5,6.5,8.8c-0.1,0.1-0.1,0.2-0.2,0.2c-1.3-2.4-3.8-6-7.5-8.2c0,0,1.2,2.1,2.1,4.7
	c-0.8-0.4-1.6-0.8-2.3-0.9c0,0,1.6,1.1,2.8,2.6c0.3,1,0.5,2,0.6,3c-0.4-0.4-1-0.9-1.6-1.3c-1.3-3-3.2-7-5.1-8.5c0,0-0.2,1.9-0.5,4.4
	c0,0,0,0,0,0c-0.8-0.7-1.8-1.4-2.9-2c0,0,0.8,1.8,1.7,4c-0.8,1.8-1.6,4.3-2.2,6.6c-0.7-2.5-1.9-5.9-3.2-7.4c0,0,2,6.4-1,9.5
	c0.2-2.4,0.5-4.8,0.5-4.8c-0.7,0.8-1.3,1.8-1.8,2.9l-1.9-4.7c0,0,0.6,6.4-2.3,7.6l-1.1-1.9l-2,2.9l-0.5-1.7l-2.3,2.2
	c0-0.8,0-3.1,0-6.2l1.9-2.6l0.4-0.6l1.8-2.3l0.4-1.7l0.3-1l0.2-0.8l5.7-2.5c0.2,0.1,0.5,0.3,0.9,0.4c1.4,0.4,2.1-1.5,2.1-1.5
	s-0.6,0.4-1.5-0.2c-0.2-0.2-0.5-0.2-0.6-0.3c0.3-0.3,0.5-0.6,0.5-1c0.1-1-0.3-2-0.3-2c-0.3,1.2-1.2,0.9-1.7,1.7
	c-0.2,0.3-0.3,0.6-0.3,0.9l-4.1,2.2l0.1-0.5l0.3-1.2l0.6-2.5l0-1l5.1-7.4c0,0,0.1,0,0.1,0c0,0,0,0,0,0l0,0c0,0,0.1,0,0.1,0l0-0.1
	l0.7-0.7c0,0,0.6-0.6,0.4-1.8c-0.3-1.2,0.3-1.8,0.3-1.8s-1.5,0.4-1.8,1.7c0,0-0.1-0.1-0.1-0.1c-0.9-0.7-0.8-1.5-0.8-1.5
	s-1.1,1.7-0.3,3l-0.4,0.4l0,0l-3.4,3.2l-0.3,0.3l-2.6,1.5l-0.4,3.8l-0.6,1.3l-0.4,0.8l0,0l-2.2,4.6c0-9.3,0.1-19.5,0-21.3
	c0-1.4-2-2.4-5.1-3.1c0,0,0,0,0,0c-0.2,0-0.4-0.1-0.6-0.1c0,0-0.1,0-0.1,0c-0.2,0-0.4-0.1-0.6-0.1c0,0-0.1,0-0.1,0
	c-0.2,0-0.4-0.1-0.6-0.1c-0.1,0-0.1,0-0.2,0c-0.2,0-0.4,0-0.6-0.1c-0.1,0-0.1,0-0.2,0c-0.2,0-0.4,0-0.6-0.1c-0.1,0-0.2,0-0.2,0
	c-0.2,0-0.4,0-0.5,0c-0.1,0-0.2,0-0.3,0c-0.2,0-0.4,0-0.5,0c-0.1,0-0.2,0-0.3,0c-0.2,0-0.3,0-0.5,0c-0.1,0-0.2,0-0.3,0
	c-0.2,0-0.3,0-0.5,0c-0.1,0-0.2,0-0.4,0c-0.2,0-0.3,0-0.5,0c-0.1,0-0.3,0-0.4,0c-0.2,0-0.3,0-0.5,0c-0.1,0-0.3,0-0.4,0
	c-0.2,0-0.3,0-0.5,0c-0.1,0-0.3,0-0.4,0c-0.2,0-0.3,0-0.5,0c-0.1,0-0.3,0-0.4,0c-0.2,0-0.3,0-0.5,0c-0.2,0-0.3,0-0.5,0
	c-0.2,0-0.3,0-0.5,0c-0.2,0-0.3,0-0.5,0c-0.1,0-0.3,0-0.4,0c-0.2,0-0.3,0-0.5,0c-0.1,0-0.3,0-0.4,0c-0.2,0-0.3,0-0.5,0
	c-0.1,0-0.3,0-0.4,0c-0.2,0-0.4,0-0.6,0c-0.1,0-0.2,0-0.3,0c-3.8,0.3-7,0.6-9.6,1c0.1-0.3,0.2-0.9,0.3-1c0-0.1,0-0.2-0.2-0.3
	s0-0.2,0-0.4c0.1-0.2,2.5-7.2,2.5-7.4s-0.1-0.3-0.2-0.3h0c0,0,0-0.1,0-0.1c0,0-0.1-0.1-0.1-0.1c-0.2-0.1-0.9-0.2-0.9-0.2
	c0-0.1,0.1-0.2,0.1-0.2c0.1-0.4-0.1-0.5-0.3-0.5l0.1-0.5c0,0,0.3,0.1,0.4-0.2c0,0,0-0.1,0.1-0.2l1,0.3c0,0.1-0.1,0.2-0.1,0.2
	c0,0.2,0.2,0.3,0.5,0.4s3.5,1.2,3.9,1.2c0.3,0,0.5,0,0.7-0.2c0.2-0.2,0.4-0.3,0.5-0.3c0.1,0,0.1-0.1,0.2-0.4
	c0.1-0.3,0.3-1.2,0.4-1.4c0-0.2,0-0.3-0.2-0.4c-0.2,0-1.9-0.3-2-0.3c-0.1,0-0.1,0.1-0.2,0.2c0,0.1,0,0.2-0.3,0.2c-0.2,0-0.4,0-0.5,0
	c-0.1,0-0.2-0.1-0.2-0.2c0-0.1,0-0.4-0.3-0.4c-0.3,0-1.5-0.1-1.7-0.1c-0.1,0-0.2,0.1-0.2,0.2l-1.2-0.3c0-0.1,0-0.2,0.1-0.2
	c0-0.2,0-0.3-0.2-0.4c-0.1,0-0.3-0.1-0.3-0.1l0.1-0.3c0,0,0.4,0.1,0.4-0.1c0-0.2,0.3-1,0.3-1s0-0.2-0.2-0.2
	c-0.3-0.1-1.8-0.5-1.9-0.5c-0.1,0-0.3,0-0.4,0.2c-0.1,0.2-0.2,0.5-0.3,0.7c-0.1,0.2,0.2,0.4,0.3,0.4l-0.2,0.4c0,0-0.2-0.1-0.3-0.1
	c-0.1,0-0.2,0.2-0.3,0.3L39,236c0,0,0.6-2.2,0.7-2.4c0-0.2,0.2-0.6-0.1-0.6c-0.2-0.1-0.5-0.1-0.5-0.1l0.7-2.4c0,0,0.6,0.2,0.8-0.1
	c0.2-0.4,0.5-1.5,0.6-1.7c0.1-0.2,0-0.5-0.2-0.5c-0.2-0.1-0.4-0.1-0.4-0.1l0.3-1.3l0.2,0.1l0.7-0.5c0,0,2-5.8,2.2-6.2
	c0.2-0.5,0.3-0.7,0.3-0.7s-0.4-0.2-0.7,0.2c-0.2,0.5-0.6,1.6-0.6,1.6s-0.1,0.1-0.4,0c-0.3-0.1-0.5-0.1-0.4-0.4
	c0.1-0.3,0.3-1.2,0.4-1.4c0.1-0.2,0-0.4-0.2-0.5c-0.1,0-0.4-0.1-0.7-0.2c-0.1,0-0.2-0.1-0.3-0.1c-0.4-0.1-0.9-0.2-0.9-0.2
	s-0.5-0.1-0.6,0.3c-0.2,0.5-0.3,1.3-0.4,1.4c0,0.2-0.1,0.2-0.3,0.2c-0.2,0-0.5-0.2-0.6-0.2c-0.1,0-0.2-0.1-0.1-0.3
	c0.1-0.2,0.3-1.3,0.3-1.5c0-0.2-0.1-0.3-0.3-0.4c-0.2-0.1-0.2,0.2-0.3,0.4c-0.1,0.2-1.3,6.2-1.4,6.5c-0.1,0.3,0.1,0.8,0.3,1
	c0.1,0.1,0.4,0.1,0.4,0.1l-0.4,1.4c0,0-0.4-0.1-0.5-0.1c-0.1,0-0.3,0-0.4,0.3c-0.1,0.2-0.4,1.5-0.4,1.7c-0.1,0.2,0,0.5,0.2,0.5
	c0.2,0,0.4,0.1,0.4,0.1l-0.6,2.4c0,0-0.3,0-0.4-0.1c-0.1,0-0.3,0-0.4,0.3c-0.1,0.2-1.1,3.9-1.3,4.7c-0.2,0-0.3-0.1-0.5-0.1
	c-1.1-0.2-2.5-0.5-3.2-0.6c-0.6,0-0.4,0-0.7,0.8c-0.3,0.9-2.2,10.9-2.6,12.8c-0.4,1.9-0.5,3.4-0.6,3.6c0,0.3,0.1,0.1,0,0.3
	c-0.1,0.2-0.7,0.4-0.8,0.6c-0.1,0.1-0.2,0-0.5-0.3c-0.3-0.3-0.4-0.7-0.8-1s-0.7-0.4-0.8-0.5c-0.1-0.1,0-0.2,0-0.2c0,0-0.1,0-0.2,0
	c-0.1,0-0.5,0.9-0.5,1c0,0-0.1,0.3-0.2,0.6l-1.5-0.4c0,0-1.1-0.2-2-0.7c-1-0.4-2.9-1.7-3.5-2.1c-0.6-0.4-2.1-2.1-2.5-2.6
	c-0.4-0.5-0.8-1-0.8-1l0.3-0.5l-1.4-0.9l-0.7,0.9l0.1,0.1l-0.7,0.7l0.1,0.1L9,248.6l0.1,0.2l-0.7,0.7l0.2,0.2L8,250.3l0.2,0.2
	l-0.8,0.8l0.2,0.2l-0.7,0.7l0.1,0.2l-0.8,0.8l0.2,0.1L5.7,254l0.2,0.1l-0.7,0.7l0.2,0.1l-0.8,1l1.2,0.7l0.6-0.3c0,0,3,2.4,4.3,3.2
	c1.4,0.8,4.2,2,6.1,2.5c1.8,0.5,2.9,0.9,3.1,0.9c-0.2,0.9-0.4,1.5-0.4,1.5s-0.5,0.2-0.5,0.5c-0.1,0.3-0.9,3.1-1,3.5
	c-0.1,0.4-0.1,1.4-0.1,1.5c0,0.1-0.4,0.2-0.4,0.2l-0.1-0.6l-1.6,0.2l-0.1,0.4c0,0-0.3-0.1-0.6-0.1c-0.3-0.1-0.5,0.3-1.2,0.4
	c-0.7,0.1-1,0.2-1.7-0.1c-0.8-0.2-0.8-0.3-1-0.1c-0.3,0.3-0.2,0.7-0.2,1.4c0,0.7-0.1,2-0.2,2.5c0,0.5,0.5,1.2,1,1.3
	c0.5,0.1,1.8,0,2.6-0.2c1.2-0.2,2.6-0.8,3.2-1.1c0.5-0.2,1.7-0.9,2-0.9c0.3-0.1,0.5,0.2,0.6,0.5c0.1,0.3,0.2,0.3-0.1,1.4
	c-0.3,1.1-0.4,1.3-0.3,1.4l-0.3,0.9c0,0-0.2-0.2-0.3-0.1c-0.1,0.1-0.4,1.2-0.4,1.2s-1.2,4-1.3,4.5c-0.2,0.5-0.2,1-0.1,1.3
	c0.1,0.3,0.5,0.9,0.5,0.9l-0.2,0.7c0,0-1.6-0.3-2.9,0.4c-0.6,0.3-1.2,0.7-1.6,1c-0.5-1-1.2-1.9-2.2-2.6c0,0,0.5,1.3,0.9,3
	c-0.4-0.1-1-0.3-1.2-0.3c-0.3-0.1-0.8-0.1-1,0.4c-0.1,0.2-0.1,0.5-0.2,0.8c-0.2-0.1-0.4-0.1-0.6-0.2c0,0,0.2,0.3,0.4,0.8
	c0,0.2-0.1,0.3-0.1,0.5c0,0.1,0,0.1,0,0.2c0,0,0,0,0,0.1c0,0,0,0.1,0,0.1c0,0,0,0.1,0,0.1c0,0,0,0.1,0,0.1c0,0,0,0,0,0.1
	c0,0,0,0.1,0,0.1c0,0,0,0,0,0c0,0,0,0.1,0,0.1c-0.1,0.3,0,0.8,0.3,0.9c0.1,0.1,0.4,0.1,0.6,0.2c0,0.3-0.1,0.7-0.2,1l-1.5-1.9
	c0,0,1.1,2.5,0.7,4.5l-1.1,0.9l-4.8,0.8c-0.7,0.1-1.4,0.1-2.2,0.2c0,0,0,0.1,0.1,0.1l-1.1,0.2c0,0,0.5,0.1,1.3,0.3
	c0.4,1.2,0.8,2.3,1.3,3.5c0.3,1,0.7,2,1,3c-0.2,0-0.4,0-0.6,0.1c0.2,0.5,0.3,0.9,0.5,1.4l0.6,0.1c0,0.1,0.1,0.2,0.1,0.3
	c0,0,0,0,0,0.1v0c0,0,0,0,0,0c0,0,0,0,0,0c0,0,0,0,0,0c0,0,0,0,0,0c0.2,0,0.3,0,0.5,0.1c0,0,0,0,0,0c0.6,0,1.3,0,2-0.1l3.8,0.4
	l6.1-1.7c2-0.3,4-0.5,5.9-0.5c0.4,0,0.7,0,1.1,0c1.8,4.2,3.5,8.5,5.1,12.8c0.7,1.8,1.3,3.5,1.9,5.3c0,0,0,0,0,0
	c1.2,3.5,2.4,7,3.5,10.5c0,0.1,0.1,0.3,0.1,0.4c0.5,1.7,1,3.4,1.5,5.1c0,0,0,0,0,0.1c0.5,1.7,1,3.4,1.4,5c0.1,0.3,0.2,0.5,0.2,0.8
	c0.4,1.6,0.9,3.2,1.3,4.8c0,0.1,0,0.1,0.1,0.2c0.4,1.6,0.8,3.2,1.2,4.9c0.1,0.4,0.2,0.8,0.3,1.1c0.4,1.6,0.8,3.2,1.1,4.8
	c0,0,0,0,0,0.1c0.3,0.1,0.6,0.2,0.8,0.4c0.6,0.6,1.3,1.1,2,1.5c0,0,0,0,0.1,0c0.7-0.4,1.4-0.9,2.1-1.3c0.2-0.1,0.4-0.2,0.6-0.4
	c0.5-0.3,1-0.6,1.5-0.9c0.2-0.1,0.5-0.3,0.7-0.4c0.5-0.3,0.9-0.5,1.4-0.8c0.3-0.1,0.5-0.3,0.8-0.4c0.5-0.2,0.9-0.5,1.4-0.7
	c4-2,8-3.8,12-5.7c2.8-1.3,5.6-2.6,8.3-4c0,0,0,0,0,0c0.7-0.4,1.5-0.8,2.2-1.2c0.6-0.3,1.2-0.7,1.8-1c-0.8-4.6-0.9-9.3-0.9-14.1
	c0-2,0-4.1,0-6.1v0c0-4.1-0.1-8.2-0.5-12.4c0.4,0,0.9,0.6,1.3,1c0,0,0,0,0,0c0.4,1.3,0.8,2.5,1.3,3.6c1.1,2.6,2.5,5,4.1,7.1
	c0,0.1,0.1,0.1,0.1,0.2c1.2,1.9,2.3,3.7,3.3,5.6c1,1.9,2,3.7,3,5.6c0.3-0.2,0.7-0.4,1-0.5c0,0,0.1,0.1,0.1,0.1
	c0.3,0.2,0.6,0.5,0.9,0.9c2.2,2.9,4.4,5.9,6.7,8.9c0.1,0.1,0.2,0.3,0.3,0.4c0.3,0.4,0.5,0.9,0.5,1.3c0,0.1,0,0.1,0,0.2
	c0,0.1,0,0.1,0,0.2c-0.1,0.2-0.2,0.5-0.4,0.8c0,0,0,0,0,0c-0.2,0.2-0.2,0.5-0.2,0.7c0,0,0,0,0,0c0,0.1,0,0.3,0.1,0.4
	c0,0.1,0.1,0.3,0.2,0.4c1.2,1.8,2.5,3.5,3.7,5.2c0.5,0.7,1,1.4,1.5,2c2.2,3.1,4.5,6.2,6.6,9.4c1,1.5,1.9,2.9,2.8,4.4
	c0.5,0.7,0.9,1.5,1.4,2.2c0.7,1.2,1.5,2.3,2.2,3.5c1.6,2.5,3.2,5,4.9,7.5c1.8,2.6,4.2,5,6.7,7.3c0.3,0.3,0.7,0.6,1,0.9
	c1.4,1.3,3,2.5,4.6,3.7c0.8,0.6,1.7,1.2,2.6,1.7c1.4,0.9,3.9,0.7,4.8-0.3c0,0,0,0,0,0c0.1-0.1,0.2-0.3,0.3-0.5
	c1.3-3.6,2.8-7.2,3.3-10.9c0.2-1.3,0.5-2.4,0.8-3.4c0.9-2.4,2.3-4.2,4.6-6.9c3.1-2,2.6-1.8,2.6-5c-0.2-0.3,0.4-0.9,0.6-1.7
	c0-0.1,0-0.1,0-0.2c0-0.1,0-0.2,0-0.3c0-0.2-0.1-0.5-0.3-0.7c0.1-1.1,0.1-2,0.4-2.9c0.1-0.2,0.1-0.3,0.2-0.5
	c0.1-0.2,0.2-0.3,0.3-0.5c0.5-0.8,1.4-1.3,2.6-2.2c0.9-0.7,2-1.7,2-2.5c0.1-0.9-0.5-1.6,0.3-2.3c0.3-0.3,0.4-0.5,0.5-0.8
	c0,0,0-0.1,0-0.1c0,0,0-0.1,0-0.1c0-0.1,0-0.3,0-0.4c0-0.3,0-0.5,0.4-0.8c1.1-0.9,1.6-1.7,1.2-2.7c-0.1-0.4-0.1-0.8-0.1-1.2
	c0-0.1,0-0.2,0.1-0.3c0.1-0.3,0.2-0.5,0.3-0.7c0.3-0.9,0.6-1.6,1-2.2c0-0.1,0.1-0.1,0.1-0.2c0.1-0.2,0.2-0.3,0.4-0.4
	c0.2-0.3,0.5-0.5,0.8-0.7c0.1-0.1,0.2-0.2,0.3-0.2c0.5-0.3,1-0.6,1.6-0.9c1.7-1.6,2.6-2.1,2.9-3.8c0-0.3,0-0.5,0.1-0.9
	c0-0.8,0-1.9,0.5-2.6c1.6-2.1,3.4-4.2,5.4-6.1c0.7-0.7,1.4-1.4,2.1-2.1c0,0,0,0,0,0c0.2-0.2,0.4-0.3,0.6-0.5
	c0.1-0.1,0.3-0.2,0.4-0.3c0.2-0.2,0.5-0.4,0.8-0.5c0.6-0.3,1.2-0.6,1.9-0.8c0.3-0.2,0.6-0.5,0.9-0.7c1.8-1.2,3.9-1.6,6.1-1.3
	c0.4,0.4,0.1,0.7-0.2,1.1c-0.1,0.1-0.2,0.2-0.2,0.3c2.3,1.8,4.5,3.7,6.7,5.7c0.2,0.1,0.3,0.2,0.5,0.3c0.2,0.2,0.5,0.3,0.7,0.5
	c0,0,0,0.1,0,0.2c0,0,0,0.1,0,0.2c0.3,0.3,0.7,0.7,1,1c2.4,2.4,4.8,4.8,7.2,7.2c0,0,0.1,0.1,0.1,0.1c0.1,0,0.3,0.1,0.4,0.1
	c0.3,0.1,0.5,0.2,0.8,0.4c0.1,0.1,0.2,0.1,0.2,0.2c2,1.5,3.4,3.1,4.7,4.9c0.7,0.9,1.3,1.8,1.9,2.8c0.2,0.2,0.3,0.4,0.3,0.5
	c0,0,0,0,0,0c1.3,1.3,2.5,2.6,3.8,3.9c2.8,2.8,5.7,5.6,8.7,8.2c0.2-0.1,0.5-0.1,0.7-0.2c5.7-1.6,10.1-4.1,13.2-7.6
	c0.7-0.8,1.2-1.5,1.8-2.4c0.7-1.1,1.3-2.1,2-3.2c1.2-2,2.5-4.1,3.6-6.1c0.7-1.4,1.4-2.9,1.4-4.3c0,0,0,0,0,0c0-0.2,0-0.4-0.1-0.6
	c-0.1-0.3-0.1-0.6-0.2-0.8c-0.3-1.5-0.1-1.9,2.4-2.8c1.4-0.5,0-0.9,0.1-1.3c0-0.1,0.2-0.3,0.6-0.5c0,0,0,0,0,0
	c0.1,0,0.2-0.1,0.3-0.2c0.1-0.2,0.2-0.4,0.6-0.6c-0.1-0.1-0.1-0.2-0.1-0.3c0,0,0,0,0,0c-0.4-1.4,0.7-1.7,0.6-2.5
	c0-0.1,0-0.1-0.1-0.2c-0.1-0.1-0.2-0.3-0.3-0.4c-0.6-0.7-1-1.5-1.3-2.3c-0.3-0.9-0.6-1.8-0.9-2.7c1.1-0.6,1.2-1.4,1.5-2.3
	c0.3-0.8,0.5-1.6-0.4-2.7c1.7-0.9,1.1-2.2,0.6-3.3c0,0,0-0.1-0.1-0.1c0-0.1-0.1-0.1-0.1-0.2c0-0.1-0.1-0.2-0.1-0.3
	c-0.1-0.2-0.1-0.4-0.1-0.5c0,0,0,0,0,0c0-0.1,0-0.2,0-0.2c0,0,0-0.1,0.1-0.1c0-0.1,0.1-0.1,0.1-0.2c0,0,0.1-0.1,0.1-0.1
	c0,0,0.1,0,0.1-0.1c0-0.2,0.3-0.9,0.3-1c0-0.1,0-0.1,0-0.2c0,0,0,0,0-0.1c0,0,0-0.1,0-0.1c0-0.6,0.2-1.4-1.1-2.2
	c-0.1,0-0.1-0.1-0.2-0.1c-0.3-0.2-0.6-0.3-1-0.5c0-0.1,0-0.2,0-0.4c6.1,1,12.4,2.1,12.3,2.1c-0.1,0,0.8-0.3,1.9-0.8
	c-0.1-0.2-0.1-0.5,0.1-0.7c0.5-0.4,0.5-0.7,1-1.1c0-0.7-2.7-1.1-5.4-1.9c0.1,0,0.3-0.1,0.4-0.1c1.7-0.7,1.7-1.3,2.2-2.4
	c0.2-0.6-0.4-1.2-0.1-1.7c0.5-0.4,0.5-0.7,1-1.1c0-1.1-7-1.7-9.9-3.6c-0.4-0.3-0.9-0.4-1.4-0.6c0.6,0,0.9,0,0.9,0s-6.1-0.6-8.5-1.8
	c-2.4-1.2-5.5-1.8-5.5-1.8l4.3-4.1l-5.7,3.2l3-5.1l-5.6,5.2l-0.2-0.9l-0.6,0.3c1-1.6,2-3.2,2.8-4.9c0.4-0.9,0.8-1.8,1.2-2.7l0.1-0.3
	l0.1-0.2l0.1-0.4c0.1-0.2,0.2-0.5,0.2-0.7c0.1-0.2,0.1-0.4,0.2-0.7c0.2-0.8,0.4-1.6,0.5-2.2c0.1-0.7,0.1-1.2,0.2-1.8
	c0-0.5,0.1-1,0.1-1.4c0-0.8,0.1-1.5,0.1-2.1c0.1-1.2,0.2-1.9,0.4-2.3c0-0.1,0.1-0.2,0.1-0.3l0.6-1.2c0.4-0.8,0.8-1.7,1.1-2.6
	c0.7-1.8,1.3-3.6,1.9-5.5c0.3-1,0.5-1.9,0.7-2.9c0.2-1,0.3-2,0.4-2.9c0.2-1.8,0.4-3.5,0.5-5.2c0.1-1.4,0.2-2.8,0.2-4.2
	c0.1,0,0.1-0.1,0.2-0.1c0.7-0.5,1.5-1.2,2.4-2c0.9-0.9,2-1.9,3-3.5c0.5-0.8,1-1.7,1.3-2.8c0-0.1,0.1-0.3,0.1-0.4
	c0.2,0.4,0.9,0.6,1.8,0.2c0.2-0.1,0.4-0.2,0.6-0.3c-0.1,0.2-0.1,0.3-0.2,0.4c-0.1,0.6,0.1,1.6,0.6,1.8c0.5,0.2,0.8-0.4,0.8-0.4
	s0,0.4,0.5,0.5c0.3,0,0.6-0.2,0.8-0.7c0.1-0.1,0.2-0.1,0.2-0.1s-0.2,0.5,0.4,0.8c0.6,0.4,1.7-0.1,2.2-1.4c0.1-0.3,0.1-0.6,0.2-0.8
	c0.1,0.2,0.2,0.4,0.3,0.5c0.5,0.7,1.8,1.4,2.6,1.1c0.8-0.3,0.3-1.1,0.3-1.1s0.5,0.3,1,0c0.5-0.4,0.3-1.5-1-2.4
	c-0.3-0.2-0.6-0.4-1-0.5c0.4,0,0.8,0,1.1,0c0.9-0.2,2-1,1.9-1.8c-0.1-0.8-1.1-0.7-1.1-0.7s0.5-0.3,0.2-0.9c-0.3-0.6-1.5-0.9-2.8-0.1
	c-0.3,0.2-0.7,0.5-0.9,0.8c0.1-0.3,0.2-0.6,0.2-0.9c0-0.8-0.6-2.1-1.5-2.2c-0.8-0.2-1,0.7-1,0.7s-0.2-0.5-0.9-0.5
	c-0.6,0-1,0.6-0.9,1.5c0,0,0,0.1-0.1,0.1c-0.1,0.2-0.2,0.5-0.3,0.8c0-0.3-0.1-0.5-0.2-0.7c-0.3-0.6-1-1.2-1.6-1.1
	c-0.6,0.2-0.4,0.8-0.4,0.8s-0.3-0.3-0.7-0.1c-0.4,0.2-0.5,1.1,0.3,1.9c0,0,0,0,0,0c0,0,0,0,0,0c0,0,0,0,0,0c0,0-0.3-0.3-0.7-0.1
	c-0.1,0.1-0.2,0.1-0.2,0.2c0-0.3,0-0.5,0-0.8c0-1,0-2,0-2.9c0-0.9-0.1-1.9-0.2-2.8c0-0.5-0.1-0.9-0.2-1.4l-0.1-0.7l-0.1-0.8
	c-0.1-0.8-0.3-1.5-0.7-2.2c0.3-0.8,0.6-1.5,0.9-2.3c0.7-1.3,1.6-2.3,2.8-3.4c0.7-0.6,1.6-1.3,2.5-2c0.9-0.7,2-1.5,3-2.4
	c1-0.9,1.9-1.8,2.9-2.9c0,0,0,0,0,0c0.1,0.4,0.4,0.7,1,1c1.1,0.5,1.5,0,1.7-0.7c0.6,0.1,0.9-0.1,1.1-0.4c0.4,0.1,0.9-0.1,1.2-0.5
	c0.1-0.1,0.1-0.2,0.2-0.3c0.4,0,0.8-0.1,1.1-0.5c0.6-0.8-0.5-2-0.7-2.1c0,0,1.9-0.9,1.4-1.7c-0.2-0.3-0.4-0.5-0.7-0.7
	c1.9-1.3,3.7-2.6,5.6-4c0.5-0.4,1.1-0.8,1.6-1.3c0.5-0.5,1.1-0.9,1.7-1.5c0.2-0.2,0.3-0.3,0.5-0.5c0.2-0.2,0.4-0.5,0.6-0.8l0.1-0.2
	c0-0.1,0.1-0.1,0.1-0.1l0.1-0.2l0.1-0.2l0.1-0.2c0.1-0.3,0.2-0.6,0.2-0.8c0.1-0.5,0.1-1,0.1-1.4c0-0.4,0-0.8,0-1.1
	c0-0.7,0-1.2,0-1.7c0-0.5,0.1-0.9,0.2-1.2c0.1-0.3,0.2-0.6,0.4-0.8c0.2-0.2,0.4-0.5,0.8-0.7c0.2-0.1,0.4-0.2,0.6-0.3l0.3-0.2
	l0.5-0.2c0.7-0.3,1.3-0.6,2-1c1.3-0.8,2.5-1.7,3.6-3c0.3-0.3,0.5-0.7,0.8-1.1c0.2,0.2,0.5,0.3,0.8,0.3c0.4,0,0.8-0.2,1-0.6
	c0.2,0.1,0.4,0.2,0.6,0.2c0.4,0,0.8-0.3,1.1-0.8c0,0,0.1,0,0.1,0c0.7,0,1.3-0.9,1.3-1.9C292.6,178.2,292.4,177.6,292.2,177.3
	 M207.3,79.9c0,0.1,0,0.1,0,0.2c0-0.1-0.1-0.1-0.1-0.2C207.2,79.9,207.3,79.9,207.3,79.9C207.3,79.9,207.3,79.9,207.3,79.9
	 M205.9,74c0,0,0,0.1,0,0.2c-0.1-0.1-0.1-0.2-0.2-0.2C205.7,74,205.8,74,205.9,74 M213.4,86.3c0,0,0.1,0,0.1,0.1c-0.1,0-0.1,0-0.2,0
	C213.3,86.3,213.4,86.3,213.4,86.3 M220,86.4c1.1,1.5,0.9,4.8,0.9,4.8s-0.5-3.9-1.3-4.6c-0.8-0.7-2.3-2.2-2.3-2.2
	S218.9,84.9,220,86.4 M216.6,85.5c0,0,4.3,2.9,2.9,8.9C219.5,94.4,220,88.8,216.6,85.5 M230.3,139.6c-0.2-0.4-0.3-0.8-0.4-1.2
	c0-0.1,0-0.1,0-0.2c0.2-2.7,1.1-7.7,1.1-14.3s0.8-10-3.3-14.2c0,0,3.3,0.8,4.2,5c0.8,4.2-0.9,18-0.8,20.3c0,2.3,0.1,4.6,2.5,5.9
	C233.5,140.9,231.2,140.9,230.3,139.6 M215.9,189.3c0.1-1.3-0.9-5.6-2.7-6.9c-1.8-1.3-4.1-2.8-4.5-4.6c-0.2-1-0.5-2.8-0.4-4.3
	c0.2,0.1,0.4,0.2,0.7,0.3c0,1.1,0.1,2.3,0.5,3c0.8,1.7,1.5,2.7,3.4,4c1.9,1.3,2.6,2.4,3,4.1s1,7.5,1,7.5S215.9,190.6,215.9,189.3
	 M217.7,193.6c0,0,0-0.1,0-0.2C217.7,193.4,217.8,193.5,217.7,193.6c0.1,0,0.1,0,0.1,0c0,0,0,0,0,0.1c0,0,0,0,0,0.1c0,0,0,0,0,0
	C217.9,193.9,217.8,193.8,217.7,193.6 M207.3,231.4C207.3,231.4,207.4,231.4,207.3,231.4c0.1,0,0.2,0.1,0.2,0.1
	c0.1,0,0.1,0.1,0.1,0.1c0,0,0,0,0,0C207.6,231.6,207.5,231.6,207.3,231.4 M213,233.7l0.1,0.1l0.1,0.1l0.1,0.1l0.1,0.1l0,0
	C213.2,233.9,213.1,233.8,213,233.7 M213.6,234.6C213.5,234.6,213.5,234.6,213.6,234.6c-0.1-0.1-0.1-0.3-0.2-0.5l0,0
	c0,0,0,0.1,0.1,0.1c0,0,0,0.1,0,0.1c0,0.1,0,0.1,0,0.1C213.6,234.5,213.6,234.5,213.6,234.6C213.6,234.6,213.6,234.6,213.6,234.6
	 M167.6,70.5l-2.5,57.5h-2.5l2.5-56.7c0,0-10.8-5.8-10.8-10L167.6,70.5z M148.5,74.2l1.2,1.4l-2,7.8l0.8-7.3l-0.8-1.1h-5.4l-1.5-0.8
	H148.5z M126.1,114.8c0-0.2,0-0.4,0-0.6c0,0,0.1,0.4,0.2,1C126.3,115.1,126.2,114.9,126.1,114.8 M127.4,117.7
	c0.4,0.2,0.9,0.4,1.3,0.6c0.2,0.1,0.4,0.2,0.6,0.3C129.4,118.5,128.3,118.4,127.4,117.7 M134.3,118c-4.6,0-8.3-3.7-8.3-8.3
	c0-4.6,3.7-8.3,8.3-8.3c4.6,0,8.3,3.7,8.3,8.3C142.6,114.3,138.9,118,134.3,118 M144.2,111c0,0-1.1-8.7-8.1-10.8
	C136.1,100.1,145.3,101.2,144.2,111 M131.6,49.3v14l-5.3-8C128.4,52.8,130.7,50.2,131.6,49.3 M123.1,59.6c0.1-0.2,0.3-0.4,0.4-0.6
	l2.5,6.5l4.8,4.8l-0.1,1C128.9,69.8,120.9,62.9,123.1,59.6 M126.8,73.2l1.2,2.4L126.8,73.2L126.8,73.2L126.8,73.2z M95.5,130.3
	c-5.7-7.5,1.7-13.8,5.1-18.9l0.8,17.6l6.8,0.9v9C107.5,138.7,100.9,137.4,95.5,130.3 M23.5,288c0,0,0.1-0.1,0.1-0.1
	c0,0,0.1-0.1,0.1-0.1c0,0,0.1-0.1,0.1-0.1c0.1,0,0.1-0.1,0.2-0.2c0,0,0.1-0.1,0.1-0.1c0.1-0.1,0.1-0.1,0.2-0.2c0,0,0.1-0.1,0.1-0.1
	c0.1-0.1,0.2-0.2,0.3-0.3c0,0,0.1-0.1,0.1-0.1c0.1-0.1,0.1-0.1,0.2-0.2c0,0,0.1-0.1,0.1-0.1c0.1-0.1,0.1-0.1,0.2-0.2
	c0,0,0.1-0.1,0.1-0.1c0.1-0.1,0.1-0.2,0.2-0.2c0,0,0.1-0.1,0.1-0.1c0.1-0.1,0.2-0.2,0.3-0.3c0,0,0,0,0.1-0.1
	c0.1-0.1,0.1-0.2,0.2-0.3c0,0,0.1-0.1,0.1-0.1c0.1-0.1,0.1-0.2,0.2-0.2c0,0,0.1-0.1,0.1-0.1c0-0.1,0.1-0.1,0.1-0.2
	c0,0,0-0.1,0.1-0.1c0.1-0.1,0.1-0.2,0.2-0.3c0.9-1.6,1.5-2.9,1.7-3.8c0.2-0.7,0.6-1.8,0.8-2.3c0,0,0.4,0.4,0.5,0.5
	c0.1,0,0.2-0.1,0.2-0.1s0.2,0.1,0.2,0.1c0,0,0.1-0.5,0.2-0.7c0.2,0.2,0.4,0.3,0.6,0.4c0.6,0.2,1.2-0.1,1.4-0.6
	c0.4,0.3,1.5,1.4,1.7,1.6c0.2,0.2,0.4,0.3,0.5-0.1c0-0.1,0-0.2,0.1-0.4c0.4,6.2,0.9,12.8,1,13.8l-2.8,0.7l0,0l-5.6,0.5l-0.7-0.6
	c0.1-2.1,0.7-5.7,2.7-7.8c0,0-3.8,3.7-4.4,5.6c0,0-0.3-1.4,1.2-3.4c0,0-1.9,1.4-3.4,3c-0.1-0.4-0.2-0.7-0.3-1
	c-0.3-0.4-0.1-0.5,0.3-0.6c0.1,0,0.4-0.2,0.6-0.4C23.4,288.1,23.4,288,23.5,288 M32.7,272.4c0-0.1,0.2,0,0.3-0.2
	c0.1-0.2,0.4-1.4,0.4-1.5c0-0.1-0.2-0.1-0.1-0.3c0-0.2,0.1-0.4,0.3-0.5c0.2-0.1,0.2-0.2,0.3-0.5c0.1-0.3,0.2-0.8,0.3-1
	c0-0.2-0.1-0.1-0.1-0.5c0.1-0.4,0.1-0.3,0.1-0.4c0,0,0,0,0.1,0c0,1.5,0.2,4.8,0.4,8.5c-0.1-0.1-0.3-0.1-0.5-0.2
	c-0.3-0.1-1-0.2-1.4-0.3c0-0.4-0.2-0.8-0.5-1l0.5-1.8C32.8,273,32.7,272.5,32.7,272.4 M30.6,274.2c0.4-1.2,0.8-2.5,1.2-3.6
	L30.6,274.2z M134,280.8c-2.1,0-5.3,1-5.3,1s2.8-2,5.6-2c2.8,0,5.5,2,5.5,2S136.2,280.8,134,280.8 M69.1,290.3L69.1,290.3l0.1-0.1
	L69.1,290.3z M218.6,278L218.6,278c0-0.1,0-0.2,0.1-0.2l0,0C218.7,277.8,218.7,277.9,218.6,278C218.6,278,218.6,278.1,218.6,278
	 M152.4,279.5c0.6-0.2,1.2-0.3,1.9-0.3c3.3,0,6.5,3,6.5,3s-4.3-1.5-6.9-1.5c-2.5,0-6.2,1.5-6.2,1.5s1.8-1.6,4.1-2.5
	c-1.5-0.4-3.8-1-5.3-1c-2.5,0-6.2,1.5-6.2,1.5s3.3-3,6.6-3C149,277.3,151.2,278.7,152.4,279.5 M132.2,274.9l5.4-5.2l4.1,3.3l3.8-7.6
	l-3.8,11.1l-4.2-4.2l-6,5.3l-3.1-6.9L132.2,274.9z M109.2,241.3c-0.1,0.1-0.2,0.2-0.3,0.3C108.9,241.4,109,241.4,109.2,241.3
	 M110,240.6c-0.1,0.1-0.1,0.1-0.2,0.2C109.8,240.7,109.9,240.7,110,240.6 M110.7,240c1.4-1.1,3-2.3,4.8-3.4v6.6L110.7,240z
	 M111.7,278.9c2.5,0,4.9,1.7,6,2.5c1.1-0.3,2.2-0.5,3.3-0.5c4.1,0,8.3,3,8.3,3s-5.5-1.5-8.7-1.5c-3.2,0-7.9,1.5-7.9,1.5
	s2-1.4,4.6-2.3c-1.4-0.4-4.1-1.2-5.9-1.2c-1.9,0-4.6,0.9-5.7,1.3c0-0.1,0-0.1-0.1-0.2C106.6,280.7,109.2,278.9,111.7,278.9
	 M67,253.2c-0.6,0.3-1.2,0.5-1.7,0.6c-11.4,2.1-21.4,0.8-26.1-0.1l0,0c0-0.1-0.1-0.1-0.1-0.3c0,0,0,0,0,0
	C46.5,253.8,62.1,253.4,67,253.2 M42,240.1l-0.7,2.1C41.6,241.2,41.8,240.5,42,240.1 M19.6,265.6c0.1-0.3,0.4-0.5,0.8-0.4
	c0.4,0.1,1.5,0.5,1.8,0.6c0.3,0.1,0.5,0.2,0.4,0.5c0,0.2-0.2,0.8-0.4,1.5c0,0,0,0,0,0l0,0c0,0.1-0.1,0.2-0.1,0.4c0,0,0,0,0,0v0
	c-0.2,0.1-0.4,0.1-0.6,0.1c-0.1,0-0.2,0-0.2,0c-0.6-0.1-1.5-0.2-2-1.2C19.4,266.4,19.6,265.8,19.6,265.6 M234,234.9L234,234.9
	C234,235,234,234.9,234,234.9L234,234.9c0-0.1,0-0.1,0-0.2L234,234.9z M250.1,238.7C250.1,238.7,250.1,238.7,250.1,238.7
	C250.1,238.7,250.2,238.7,250.1,238.7C250.2,238.7,250.1,238.7,250.1,238.7 M238,180.9c0,0,0,0.1,0.1,0.1c0,0,0,0.1,0.1,0.1
	c0,0,0,0.1,0.1,0.1c0.1,0.1,0.1,0.2,0.1,0.3c0,0,0,0,0,0l0,0l0-0.1c0-0.1-0.1-0.2-0.1-0.2C238.1,181.1,238.1,181,238,180.9
	C238,180.9,238,180.9,238,180.9 M230.9,172.8c-1.7-0.5-3.1-0.7-3.3-2.4c-0.2-1.7-1.4-8-2-9.2c-0.6-1.2-0.8-3.3-4.4-4.7
	c0,0,2.3,0.2,3.6,1.5c1.4,1.3,2.1,2.5,2.4,4.6c0.3,2.1,1,6.1,1.6,7.6s2.1,0.4,3.2,1.9c1.1,1.5,3.3,4.8,3.9,6.1c0.6,1.2,1.2,3,1.2,3
	s-2.5-2.3-3-3.7C233.6,176.1,232.6,173.4,230.9,172.8 M241.6,249.3C241.5,249.4,241.5,249.4,241.6,249.3
	C241.6,249.3,241.7,249.3,241.6,249.3C241.7,249.3,241.7,249.3,241.6,249.3 M242.9,166.8c0,0,4.9,3.8,8.6,10.4
	c3.7,6.6,2.8,22,2.8,22s-0.3-17.7-3.9-22C246.8,173,247.3,170.6,242.9,166.8 M253,143.2c0,0,0,0.1,0,0.1
	C253,143.3,253,143.3,253,143.2C252.9,143.3,253,143.2,253,143.2 M258.9,143.5c1.3,1.2,2.9,3.7,3.1,6.2c0.2,2.5-1.4,9.4-1.5,10.2
	c-0.1,0.9,0,1.8,0,1.8l-1,0.4c0,0,0.1-3,0.6-4.8c0.5-1.7,1.2-6.1,1-8.2c-0.1-1.1-0.6-2.5-1.3-3.7c0-0.2-0.2-0.4-0.3-0.5
	c-0.1-0.1-0.1-0.2-0.2-0.2c0.1-0.1,0.2-0.3,0.2-0.6c-0.1-0.4-0.6-0.7-1.4-0.6c-0.3-0.2-0.7-0.5-1-0.6c0,0,0,0,0,0
	c0-0.2-0.1-0.5-0.1-0.7C257.7,142.6,258.4,143.1,258.9,143.5 M257.4,146.7c0.1,0,0.2,0,0.3,0c0.1,0.1,0.2,0.2,0.2,0.4
	C257.7,147,257.6,146.8,257.4,146.7 M272.3,192.9C272.3,192.9,272.3,192.9,272.3,192.9L272.3,192.9
	C272.3,192.8,272.3,192.8,272.3,192.9C272.3,192.8,272.3,192.9,272.3,192.9 M283,164c0-0.3,0.1-0.9,0.2-1.6c0.3-0.3,0.6-0.8,0.6-1.3
	c0,0,0,0,0-0.1c0.1,0,0.2,0,0.4,0c-0.2,1.2-0.4,2.5-0.4,3.3c0.1,1.5,0.9,6.8,2.1,8.2c0.6,0.7,1.1,1.3,1.5,2
	c-0.2,0.4-0.2,0.9-0.2,1.5c0,0.3,0.1,0.6,0.1,0.9c0,0-0.1,0-0.1,0h-0.1c-0.6-2.3-2.2-3.3-2.9-5.5C283.5,169,282.9,164.9,283,164
	 M283.8,175.7c0,0,0-0.2-0.1-0.5l0.1,0.2l0.2,0.3C283.9,175.7,283.8,175.7,283.8,175.7 M285.6,183.5c-2,1.6-3,1.1-2.4,0.7
	c0.4-0.3,2.5-2,3.6-4c0.1,0,0.2,0,0.4,0c0,0.3,0.1,0.7,0.3,0.9C287,182,286.4,182.8,285.6,183.5"/>
<path class="st0" d="M158.9,202.8v5.9c4-3.6,6.8-7.2,7.3-10.6c0.4-2.1,0.6-4.1,0.6-6l6.5-4.8l-6.8-2.9c-1.2-8.1-2.8-14.3-7.6-17.9v8
	c0,0,5.6,9.8,2.9,21.6C161.1,199.4,160.1,201.4,158.9,202.8"/>
<rect x="24.4" y="131.5" class="st0" width="1.3" height="1.3"/>
<rect x="27.1" y="131.5" class="st0" width="1.3" height="1.3"/>
<rect x="36.3" y="155.6" class="st0" width="1.3" height="1.3"/>
<rect x="24.4" y="101.1" class="st0" width="1.3" height="1.3"/>
<rect x="24.4" y="103.8" class="st0" width="1.3" height="1.3"/>
<rect x="33.7" y="119.7" class="st0" width="1.3" height="1.3"/>
<rect x="27.1" y="164.9" class="st0" width="1.3" height="1.3"/>
<rect x="24.4" y="128.9" class="st0" width="3.9" height="1.3"/>
<path class="st0" d="M7.9,184.3l0.2,3.2v-2.7c0.1,0.3,0.3,0.6,0.4,0.9c0.1,0.2,0.2,0.4,0.4,0.7c0.4-1.7,0.8-3.4,1.2-5.1
	c0.2-0.7,0.3-1.4,0.5-2.1c0.1-0.4,0.2-0.9,0.3-1.3c0.3-1.1,0.5-2.2,0.8-3.4c0.3-1.4,0.7-2.9,1.1-4.3c0.3-1.3,0.7-2.5,1-3.8
	c0.1-0.5,0.1-1.1-0.1-1.6c0,0,0-0.1,0-0.1c0,0,0,0,0,0c0-0.1-0.1-0.1-0.1-0.2c0,0,0-0.1-0.1-0.1c-0.2-0.4-0.4-0.8-0.5-1.2
	c-0.1-0.2-0.1-0.4-0.2-0.7c0-0.1,0-0.2-0.1-0.4c-0.1-0.7-0.3-1.5-0.3-2.2c0,0,0-0.1,0-0.1c0-1.1-0.3-1.9-0.9-2.5
	c-0.1-0.1-0.2-0.3-0.4-0.4c-0.3-0.2-0.6-0.4-0.9-0.6c-0.2-0.1-0.5-0.2-0.6-0.2c-0.2-0.2-0.3-0.4-0.5-0.5c-0.1-0.1-0.2-0.2-0.3-0.4
	c-0.3-0.3-0.7-0.4-1.1-0.6c-0.3-0.2-0.6-0.4-0.7-0.7c0,0-0.1,0-0.3-0.1c-0.2,0.7-0.4,1.5-0.6,2.2c-1.4,4.9-2.8,9.8-4.1,14.8
	c-0.1,0.3,0,0.8,0.1,1.1C3.9,176,5.9,180.2,7.9,184.3"/>
<path class="st0" d="M72,170.1c0.2,1,0.4,1.8,0.6,2.5c0.4,1.4,1.5,2.6,1.6,4.2c0,0.3,0.5,0.7,0.6,0.7c0,0,0.1,0,0.1,0
	c0.2,0,0.3-0.1,0.5-0.1c0,0,0,0,0.1,0c0,0,0.1,0,0.1-0.1c0,0,0,0,0.1,0c0,0,0.1,0,0.1-0.1c0,0,0,0,0.1,0c0,0,0.1-0.1,0.1-0.1
	c0,0,0,0,0-0.1c0,0,0-0.1,0.1-0.1c0,0,0,0,0-0.1c0-0.1,0-0.2,0-0.3c0-0.5,0-1.1,0.1-1.6c0.1-0.5,0.2-1,0.4-1.5
	c0.6-1.6,0.6-3.3,1.7-4.7c0.6-0.8,0.5-1.2-0.3-2.1c-0.1-0.1-0.1-0.1-0.2-0.2c-0.1-0.1-0.1-0.1-0.2-0.2c-0.5-0.4-0.7-0.9-0.7-1.6
	c0-0.2-0.1-0.4-0.1-0.6c0-0.1,0-0.1-0.1-0.2c0-0.1-0.1-0.2-0.1-0.4c0-0.1-0.1-0.2-0.1-0.3c0-0.1-0.1-0.2-0.1-0.3
	c0-0.1-0.1-0.2-0.1-0.3c0-0.1-0.1-0.2-0.1-0.3c-0.1-0.1-0.1-0.2-0.2-0.3c0-0.1-0.1-0.1-0.1-0.2c-0.1-0.1-0.1-0.2-0.2-0.3
	c0-0.1-0.1-0.1-0.1-0.2c-0.1-0.1-0.2-0.2-0.2-0.3c0,0-0.1-0.1-0.1-0.1c-0.2-0.3-0.4-0.5-0.7-0.7c-0.6-0.6-1.9-0.2-2,0.5
	c-0.1,0.9-0.1,1.8-0.1,2.7c0,0.6,0.1,1.1,0.1,1.7C72.3,166.9,72.1,168.6,72,170.1"/>
<path class="st0" d="M65.8,186.9c-0.5,0.4-0.6,0.8-0.3,1.4c0.3,0.6,0.8,0.5,1.2,0.4c0.5-0.1,0.8,0,1.2,0.3c0.2,0.2,0.7,0.1,1,0
	c0.1,0,0.3-0.5,0.3-0.7c0-0.6-0.2-1.1-0.3-1.7c-0.3-1.4-1.1-2.8-0.5-4.3c-0.2-0.7-0.3-1.4-0.5-2.1c-0.2-0.9-0.3-1.7-0.6-2.6
	c-0.1-0.2-0.5-0.5-0.7-0.4c-0.3,0.1-0.7,0.4-0.8,0.6c-0.4,1-0.6,2-1,3c-0.9,1.9,0.4,3.2,1.1,4.7C66.1,186.2,66.4,186.5,65.8,186.9"
	/>
<path class="st0" d="M14.2,192.8c0.1,0.1,0.2,0.1,0.4,0.2c0.2-0.1,0.4-0.2,0.5-0.4c0.3-0.8,0.1-2.1-0.6-2.7
	c-0.1-0.1-0.6-0.1-0.7,0.1C13.1,190.7,13.4,192.3,14.2,192.8"/>
<path class="st0" d="M20.3,76.6l0.3,0.1c0,0.2,0,0.3,0,0.5v0c0,0,0,0,0,0c0,0.3,0.2,0.6,0.4,0.8c0.1,0.1,0.1,0.1,0.1,0.2
	c0,0,0,0.1,0.1,0.1c0,0,0,0,0,0.1c0,0.1,0.1,0.1,0.1,0.2c0,0,0,0,0,0c0.1,0.2,0.2,0.3,0.2,0.5c0.1,0.4,0.2,0.8,0.2,1.2
	c0,2.4,0,4.8,0,7.3c0,0,0,0,0,0c-0.9,0.1-1,0.7-1,1.5c0,27.1,0,54.1,0,81.2c0,7.2-0.3,14.5-0.4,21.7c0,0.6,0,1.2,0,2
	c0.4-0.6,0.7-1.1,1-1.7c1.2,3.4,2.5,6.6,2.8,10.2c0.9-0.9,0.7-2.4,2.1-2.8c0.7,2.6,1.5,5.2,1.4,7.9c0.3-0.6,0.6-1.2,0.8-1.9
	c0.7,0.3,1.2,0.7,1.2,1.5c0.1,1,0.4,2.1,0.5,3.1c0.1,0,0.1,0.1,0.1,0.1c1.4-0.2,2.1,0.5,2.4,1.8c0.1,0.4,0.5,0.8,0.8,1.2
	c0.1,0,0.2-0.1,0.2-0.1c0.1-1,0.1-1.9,0.2-2.9c0-0.3,0.2-0.6,0.4-0.7c1.6-0.9,2.3-2.3,2.5-4c0.1-0.4,0.3-0.8,0.6-1.5
	c0.8,1,1.8,0.9,2.8,1c0.2,0,0.5,0.1,0.6,0.2c0.6,0.6,1.2,0.5,1.9,0.1c0,0,0,0,0.1,0c1-0.3,1.8-0.8,1.8-2.1c0.4,0.1,0.7,0.2,1,0.3
	c0.3-0.5,0.6-1.1,1-1.8c0.3,0.6,0.4,1.1,0.7,1.6c1.4,2.6,1.8,5.4,2,8.2c0.1,1.4,0.3,2.7,0.4,4.1h0.3c0.5-0.7,1.1-1.4,1.4-2.2
	c0.7-2.1,1.3-4.2,2-6.6c0.4,0.5,0.8,0.9,1.2,1.3c0.5-0.2,0.9-0.6,1-1.2c0.3-1.2,0.6-2.5,1.2-3.7c0.4-0.8,0.4-1.7,0.6-2.5
	c0.6-2.9,1.5-5.8,2.3-8.7c0.7,0.5,1.4,0.9,2.2,1.4v-0.9c0-8.4,0-16.7,0-25c0-1.2,0.1-2.5,0.1-3.7c0-6.4-0.1-12.8-0.1-19.2
	c0-17.3,0-34.6,0-51.9c0-1.2,0-2.3,0-3.5c0-0.4-0.2-0.8-0.4-1c-0.4-0.4-0.5-0.7-0.5-1.2c0.1-2.7,0.1-5.4,0.1-8.2c0,0,0,0,0,0
	c0-0.1,0-0.3,0.1-0.4l0.8,0.7l0.7-4.6c0,0-3.2-0.7-3.5-0.5c-0.3,0.2-2.7,0.4-3.3,0.4c-0.6,0-2.4-0.6-3.8-0.4s-2.1-0.2-3.8,0.4
	c-1.8,0.6-2.4-0.6-3.3-0.4c-0.9,0.2-6.2-0.2-8-0.2c-1.8,0-3,0.6-3,0.6l-1.4-0.4l-2.2,0.4c0.6-0.6-1.2-2.4-1.2-2.4
	c0,0.6-0.6,1.8-0.6,1.8c0.6-1.8-1.2-4.1-1.2-4.1c0.6,2.4-2.1,4.3-2.1,4.3c0.9-1-0.3-2.4-0.3-2.4c0,1.6-1.5,2.2-2,2.4
	c0,0-0.1-0.1-0.1-0.1c0,0,0,0.1,0,0.1L23,73.3l-0.5,0.6l-0.7-1.2l-1.2,1.8l-1.2,0.6C19.7,77.3,20.3,76.6,20.3,76.6 M37.6,160.9v-2.6
	h-1.3v2.7h-3.9v-4h1.3v2.6H35v-3.9h-2.6v-1.3H39v6.6H37.6z M39,164.9h-1.3v-1.3H39V164.9z M36.3,164.9H35v-1.3h1.3V164.9z
	 M32.4,151.7v-4h1.3v2.7H39v1.3H32.4z M32.4,145.1h1.3v1.3h-1.3V145.1z M32.4,122.3v-3.9h3.9v6.5h-3.9v-1.3H35v-1.3H32.4z M35,145.1
	h1.3v2.6h1.3v-2.6H39v3.9h-4V145.1z M35,136.8h1.3v6.6H35V136.8z M38.9,143.4h-1.3v-3.9h1.3V143.4z M37.6,136.8h1.3v1.3h-1.3V136.8z
	 M38.9,124.9h-1.3v-6.5h1.3V124.9z M38.9,115.6h-1.3v-1.3h1.3V115.6z M35,90.6h3.9v1.3H35V90.6z M33.7,91.8h-1.3v-1.3h1.3V91.8z
	 M38.9,93.2v4H35v-1.3h2.6v-1.4h-3.9v2.7h-1.3v-4H38.9z M37.6,109.1h1.3v1.3h-1.3V109.1z M38.9,113h-1.3v-1.3h1.3V113z M38.9,101.1
	h-1.3v-1.3h1.3V101.1z M36.3,113H35v-1.3h1.3V113z M33.7,101.1h-1.3v-1.3h1.3V101.1z M32.4,102.5h1.3v4h-1.3V102.5z M32.4,109.1h1.3
	v5.2h2.6v1.3h-3.9V109.1z M35,109.1h1.3v1.3H35V109.1z M35,106.4v-6.6h1.3v5.2h1.3v-2.6h1.3v4H35z M32.4,127.5h1.3v5.3H35v-5.3h1.3
	v5.3h1.3v-5.3h1.3v6.6h-6.5V127.5z M23.1,164.9v-1.3h6.6v3.9h-5.3v2.6h-1.3v-3.9h2.6v-1.3H23.1z M23.1,150.4h1.3v1.3h-1.3V150.4z
	 M24.4,155.6h-1.3v-1.3h1.3V155.6z M23.1,147.7H27v1.3h-3.9V147.7z M25.8,150.4h2.7v-2.7h1.3v4h-4V150.4z M23.1,145.1h6.6v1.3h-6.6
	V145.1z M25.7,139.5v-2.6H27v4h-3.9v-4h1.3v2.7H25.7z M23.1,127.5h6.5v6.6h-6.5V127.5z M23.1,113v-1.3h5.2v-1.3h-5.2v-1.3h6.5v3.9
	h-2.6v1.3h2.6v1.3h-3.9V113H23.1z M23.1,90.6h6.5v1.3h-2.6v4h1.3v-2.7h1.3v4h-3.9v-5.3h-2.6V90.6z M29.7,106.4h-1.3v-1.3h1.3V106.4z
	 M28.4,102.5h1.3v1.3h-1.3V102.5z M29.7,101.1h-1.3v-1.3h1.3V101.1z M24.4,97.2h-1.3v-1.3h1.3V97.2z M23.1,93.2h1.3v1.3h-1.3V93.2z
	 M27,106.4h-3.9v-6.6H27V106.4z M27,119.6h-1.3v-1.3H27V119.6z M25.8,121h2.6v-2.6h1.3v3.9h-3.9V121z M23.1,114.3h1.3v1.3h-1.3
	V114.3z M24.4,119.6h-1.3v-1.3h1.3V119.6z M23.1,121h1.3v2.6h5.3v1.3h-6.6V121z M23.1,142.1h5.2v-5.3h1.3v6.6h-6.5V142.1z
	 M23.1,158.3V157h2.6v-2.6H27v2.6h1.4v-2.6h1.3v6.6h-1.3v-2.7h-1.4v2.6h-3.9v-1.3h2.6v-1.3H23.1z M27,179.4h-1.3v-1.3H27V179.4z
	 M29.7,179.4h-1.3v-2.6h-2.7v-2.6h-1.3v5.2h-1.3v-6.5h3.9v2.6h2.7V179.4z M29.7,174.1h-1.3v-1.3h1.3V174.1z M29.7,170.1h-4v-1.3h4
	V170.1z M32.4,136.8h1.3v1.3h-1.3V136.8z M32.4,139.5h1.3v3.9h-1.3V139.5z M32.4,163.6h1.3v1.3h-1.3V163.6z M32.4,166.2H39v1.3h-6.6
	V166.2z M37.6,172.9H39v1.3h-1.3V172.9z M36.3,170.1h-3.9v-1.3h3.9V170.1z M33.7,179.4h-1.3v-1.3h1.3V179.4z M36.3,179.4H35v-1.3
	h1.3V179.4z M39,179.4h-1.3v-2.6h-5.3v-3.9h1.3v2.6H35v-2.6h1.3v2.6H39V179.4z M39,170.1h-1.3v-1.3H39V170.1z M43.7,199.9L43.5,82.2
	l1.4,61.6L43.7,199.9z M28.7,74.5L28.7,74.5c0-0.1,0.1-0.3,0.2-0.6C28.8,74.1,28.7,74.4,28.7,74.5"/>
<path class="st0" d="M158.1,217.1v-8.5c-0.3,0.3-0.7,0.6-1,0.9L158.1,217.1z"/>
</svg>
